{"glyphs":{"0":{"ha":1303,"x_min":0,"x_max":0,"o":"m 651 944 b 1244 465 1046 944 1244 797 b 651 -15 1244 133 1046 -15 b 58 465 257 -15 58 133 b 651 944 58 797 257 944 m 651 226 b 961 465 879 226 961 265 b 651 703 961 665 879 703 b 342 465 424 703 342 665 b 651 226 342 265 424 226 "},"1":{"ha":619,"x_min":0,"x_max":0,"o":"m 190 929 l 531 929 l 531 0 l 243 0 l 243 688 l 17 688 "},"2":{"ha":1299,"x_min":0,"x_max":0,"o":"m 290 929 l 835 929 b 1233 640 1117 929 1233 815 b 885 374 1233 481 1124 374 l 443 374 b 344 307 376 374 344 354 l 344 239 l 1240 239 l 1056 0 l 67 0 l 67 304 b 415 558 67 474 189 558 l 857 558 b 956 624 924 558 956 576 b 857 688 956 671 924 688 l 106 688 "},"3":{"ha":1265,"x_min":0,"x_max":0,"o":"m 196 239 l 832 239 b 921 304 894 239 921 261 b 832 367 921 344 894 367 l 275 367 l 424 565 l 836 565 b 917 628 878 565 917 581 b 836 688 917 674 876 688 l 58 688 l 243 929 l 824 929 b 1189 672 1046 929 1189 843 b 1063 478 1189 563 1126 501 b 1208 271 1143 454 1208 382 b 831 0 1208 117 1124 0 l 13 0 "},"4":{"ha":1333,"x_min":0,"x_max":0,"o":"m 179 111 b 40 236 93 111 40 171 b 100 350 40 275 58 315 l 771 894 b 901 944 817 932 868 944 b 1060 771 985 944 1060 894 l 1060 339 l 1325 339 l 1157 111 l 1060 111 l 1060 0 l 785 0 l 785 111 m 785 478 b 790 599 785 533 786 567 b 689 510 767 575 735 547 l 586 428 b 461 333 535 386 496 356 b 619 339 500 338 551 339 l 785 339 "},"5":{"ha":1249,"x_min":0,"x_max":0,"o":"m 1158 929 l 972 688 l 392 688 l 392 558 l 843 558 b 1190 304 1068 558 1190 474 b 793 0 1190 114 1075 0 l 58 0 l 243 239 l 815 239 b 914 307 882 239 914 258 b 815 374 914 354 882 374 l 107 374 l 107 929 "},"6":{"ha":1349,"x_min":0,"x_max":0,"o":"m 604 688 b 356 558 490 688 399 638 l 943 558 b 1290 301 1154 558 1290 469 b 710 -15 1290 46 1011 -15 b 58 474 282 -15 58 135 b 618 929 58 746 296 929 l 1217 929 l 1032 688 l 604 688 m 356 374 b 726 226 390 250 510 226 b 1019 310 965 226 1019 257 b 921 374 1019 354 989 374 "},"7":{"ha":1174,"x_min":0,"x_max":0,"o":"m 519 0 l 157 0 l 613 513 b 783 694 708 621 747 663 b 521 688 731 690 667 688 l 17 688 l 200 929 l 1003 929 b 1161 806 1108 929 1161 872 b 1115 699 1161 772 1149 738 "},"8":{"ha":1324,"x_min":0,"x_max":0,"o":"m 435 0 b 58 271 142 0 58 117 b 204 478 58 382 122 454 b 76 672 139 501 76 563 b 442 929 76 843 219 929 l 882 929 b 1247 672 1104 929 1247 843 b 1119 478 1247 563 1185 501 b 1265 271 1201 454 1265 382 b 889 0 1265 117 1182 0 m 433 367 b 344 304 372 367 344 344 b 433 239 344 261 372 239 l 890 239 b 979 304 951 239 979 261 b 890 367 979 344 951 367 m 429 688 b 350 628 389 688 350 674 b 429 565 350 581 388 565 l 894 565 b 974 628 936 565 974 581 b 894 688 974 674 935 688 "},"9":{"ha":1349,"x_min":0,"x_max":0,"o":"m 744 239 b 993 392 869 239 953 308 b 406 371 925 381 863 371 b 58 628 194 371 58 460 b 639 944 58 883 338 944 b 1290 485 1067 944 1290 794 b 731 0 1290 183 1053 0 l 144 0 l 331 239 m 428 556 b 993 569 854 556 910 560 b 622 703 964 688 839 703 b 329 619 383 703 329 674 b 428 556 329 576 360 556 "},"\u0000":{"ha":0,"x_min":0,"x_max":0,"o":""}," ":{"ha":532,"x_min":0,"x_max":0,"o":""},"\u0017":{"ha":532,"x_min":0,"x_max":0,"o":""},"!":{"ha":451,"x_min":0,"x_max":0,"o":"m 369 929 l 369 619 l 338 346 l 113 346 l 82 619 l 82 929 m 72 118 b 229 254 72 204 142 254 b 385 118 315 254 385 204 b 229 -15 385 33 315 -15 b 72 118 142 -15 72 33 "},"\"":{"ha":619,"x_min":0,"x_max":0,"o":"m 281 929 l 196 557 l 108 557 l 24 929 m 596 929 l 511 557 l 424 557 l 339 929 "},"#":{"ha":929,"x_min":0,"x_max":0,"o":"m 904 738 l 843 538 l 697 538 l 660 419 l 807 419 l 746 221 l 600 221 l 532 0 l 374 0 l 442 221 l 333 221 l 267 0 l 110 0 l 176 221 l 40 221 l 103 419 l 238 419 l 274 538 l 139 538 l 201 738 l 335 738 l 394 929 l 551 929 l 493 738 l 600 738 l 658 929 l 817 929 l 757 738 m 539 538 l 431 538 l 396 419 l 503 419 "},"$":{"ha":940,"x_min":0,"x_max":0,"o":"m 533 806 l 868 806 l 736 635 l 533 635 l 533 544 l 639 544 b 885 364 797 544 885 483 b 603 150 885 231 803 150 l 533 150 l 533 0 l 419 0 l 419 150 l 49 150 l 181 318 l 419 318 l 419 413 l 318 413 b 72 601 150 413 72 489 b 354 806 72 725 154 806 l 419 806 l 419 929 l 533 929 m 533 413 l 533 318 l 619 318 b 689 365 667 318 689 332 b 619 413 689 400 667 413 m 419 544 l 419 635 l 338 635 b 268 590 290 635 268 624 b 338 544 268 556 290 544 "},"%":{"ha":1399,"x_min":0,"x_max":0,"o":"m 356 961 b 651 722 553 961 651 888 b 356 482 651 556 553 482 b 58 722 157 482 58 556 b 356 961 58 888 157 961 m 356 603 b 510 722 468 603 510 622 b 356 840 510 822 468 840 b 200 722 242 840 200 822 b 356 603 200 622 242 603 m 1126 981 l 386 -53 l 260 -53 l 1010 981 m 1044 458 b 1340 219 1242 458 1340 385 b 1044 -21 1340 53 1242 -21 b 747 219 846 -21 747 53 b 1044 458 747 385 846 458 m 1044 100 b 1199 219 1157 100 1199 119 b 1044 338 1199 319 1157 338 b 889 219 931 338 889 319 b 1044 100 889 119 931 100 "},"&":{"ha":1213,"x_min":0,"x_max":0,"o":"m 1017 0 l 435 0 b 58 271 142 0 58 117 b 204 478 58 382 122 454 b 76 672 139 501 76 563 b 442 929 76 843 219 929 l 831 929 l 646 688 l 429 688 b 350 628 389 688 350 674 b 429 565 350 581 388 565 l 1183 565 l 1035 367 l 882 367 l 882 239 l 1200 239 m 344 304 b 433 239 344 261 372 239 l 650 239 l 650 367 l 433 367 b 344 304 372 367 344 344 "},"'":{"ha":304,"x_min":0,"x_max":0,"o":"m 281 929 l 196 557 l 108 557 l 24 929 "},"(":{"ha":488,"x_min":0,"x_max":0,"o":"m 429 1101 b 263 463 317 849 263 649 b 429 -179 263 278 310 75 l 274 -179 b 121 464 167 57 121 258 b 271 1101 121 671 169 869 "},")":{"ha":488,"x_min":0,"x_max":0,"o":"m 217 1101 b 367 464 318 869 367 671 b 214 -179 367 258 321 57 l 58 -179 b 225 463 175 75 225 278 b 60 1101 225 649 171 849 "},"*":{"ha":644,"x_min":0,"x_max":0,"o":"m 96 806 l 263 751 l 263 929 l 382 929 l 382 751 l 551 807 l 586 694 l 419 639 l 524 496 l 428 428 l 322 569 l 218 426 l 124 497 l 226 639 l 58 694 "},"+":{"ha":874,"x_min":0,"x_max":0,"o":"m 817 394 l 514 394 l 514 92 l 358 92 l 358 394 l 58 394 l 58 550 l 358 550 l 358 850 l 514 850 l 514 550 l 817 550 "},",":{"ha":404,"x_min":0,"x_max":0,"o":"m 363 239 l 226 -133 l 67 -133 l 67 239 "},"-":{"ha":644,"x_min":0,"x_max":0,"o":"m 625 560 l 485 381 l 21 381 l 161 560 "},".":{"ha":429,"x_min":0,"x_max":0,"o":"m 58 118 b 214 254 58 204 128 254 b 371 118 301 254 371 204 b 214 -15 371 33 301 -15 b 58 118 128 -15 58 33 "},"/":{"ha":656,"x_min":0,"x_max":0,"o":"m 656 981 l 179 -53 l 0 -53 l 486 981 "},":":{"ha":511,"x_min":0,"x_max":0,"o":"m 94 118 b 251 254 94 204 164 254 b 407 118 338 254 407 204 b 251 -15 407 33 338 -15 b 94 118 164 -15 94 33 m 94 568 b 251 703 94 653 164 703 b 407 568 338 703 407 653 b 251 433 407 482 338 433 b 94 568 164 433 94 482 "},";":{"ha":429,"x_min":0,"x_max":0,"o":"m 376 239 l 239 -133 l 81 -133 l 81 239 m 64 568 b 221 703 64 653 135 703 b 378 568 307 703 378 653 b 221 433 378 482 307 433 b 64 568 135 433 64 482 "},"<":{"ha":849,"x_min":0,"x_max":0,"o":"m 792 75 l 108 394 b 58 468 74 410 58 439 b 108 543 58 499 74 526 l 792 863 l 792 693 l 307 468 l 792 244 "},"=":{"ha":874,"x_min":0,"x_max":0,"o":"m 817 210 l 58 210 l 58 365 l 817 365 m 817 578 l 58 578 l 58 733 l 817 733 "},">":{"ha":849,"x_min":0,"x_max":0,"o":"m 58 244 l 543 468 l 58 693 l 58 863 l 742 543 b 792 468 775 526 792 499 b 742 394 792 439 775 410 l 58 75 "},"?":{"ha":1032,"x_min":0,"x_max":0,"o":"m 203 929 l 597 929 b 994 640 879 929 994 815 b 647 374 994 481 886 374 l 507 374 b 479 351 488 374 479 365 l 479 346 l 242 346 l 242 375 b 460 558 242 492 301 558 l 619 558 b 718 624 686 558 718 576 b 619 688 718 671 686 688 l 17 688 m 215 118 b 372 254 215 204 285 254 b 528 118 458 254 528 204 b 372 -15 528 33 458 -15 b 215 118 285 -15 215 33 "},"@":{"ha":1267,"x_min":0,"x_max":0,"o":"m 1181 250 l 588 250 b 365 463 453 250 365 344 b 588 674 365 581 450 674 l 893 674 l 893 381 l 994 381 l 994 775 l 621 775 b 243 468 406 775 243 651 b 621 154 243 285 403 154 l 1038 154 l 1157 0 l 621 0 b 58 454 293 0 58 181 b 621 929 58 726 300 929 l 1181 929 m 732 381 l 732 554 l 639 554 b 538 468 579 554 538 517 b 639 381 538 415 579 381 "},"A":{"ha":1576,"x_min":0,"x_max":0,"o":"m 481 0 l 654 239 l 888 239 b 1053 236 943 239 1008 239 b 958 371 1028 269 989 326 l 792 617 l 356 0 l 15 0 l 611 840 b 797 944 650 894 707 944 b 981 840 883 944 940 899 l 1561 0 "},"B":{"ha":1339,"x_min":0,"x_max":0,"o":"m 1136 478 b 1282 271 1217 454 1282 382 b 904 0 1282 117 1197 0 l 88 0 l 88 565 l 910 565 b 990 628 951 565 990 581 b 910 688 990 674 950 688 l 88 688 l 282 929 l 897 929 b 1263 672 1119 929 1263 843 b 1136 478 1263 563 1200 501 m 376 367 l 376 239 l 906 239 b 994 304 968 239 994 261 b 906 367 994 344 968 367 "},"C":{"ha":1282,"x_min":0,"x_max":0,"o":"m 1269 239 l 1085 0 l 618 0 b 58 474 296 0 58 204 b 618 929 58 746 296 929 l 1269 929 l 1085 688 l 618 688 b 346 461 463 688 346 594 b 618 239 346 329 461 239 "},"D":{"ha":1328,"x_min":0,"x_max":0,"o":"m 1269 474 b 710 0 1269 204 1032 0 l 88 0 l 88 579 l 376 579 l 376 239 l 710 239 b 985 461 869 239 985 328 b 710 688 985 592 865 688 l 88 688 l 271 929 l 710 929 b 1269 474 1035 929 1269 742 "},"E":{"ha":1178,"x_min":0,"x_max":0,"o":"m 1167 239 l 982 0 l 88 0 l 88 929 l 1164 929 l 978 688 l 376 688 l 376 576 l 1113 576 l 947 365 l 376 365 l 376 239 "},"F":{"ha":1139,"x_min":0,"x_max":0,"o":"m 1129 929 l 943 688 l 376 688 l 376 567 l 1076 567 l 901 340 l 376 340 l 376 0 l 88 0 l 88 929 "},"G":{"ha":1333,"x_min":0,"x_max":0,"o":"m 661 581 l 1256 581 l 1256 0 l 618 0 b 58 474 296 0 58 204 b 618 929 58 746 296 929 l 1283 929 l 1097 688 l 618 688 b 344 461 463 688 344 593 b 618 239 344 326 458 239 l 969 239 l 969 374 l 489 374 "},"H":{"ha":1304,"x_min":0,"x_max":0,"o":"m 1215 0 l 929 0 l 929 358 l 376 358 l 376 0 l 88 0 l 88 929 l 376 929 l 376 600 l 929 600 l 929 929 l 1215 929 "},"I":{"ha":471,"x_min":0,"x_max":0,"o":"m 379 0 l 92 0 l 92 929 l 379 929 "},"J":{"ha":1017,"x_min":0,"x_max":0,"o":"m 363 239 b 654 422 582 239 654 289 l 654 929 l 943 929 l 943 422 b 363 0 943 140 749 0 l 15 0 l 203 239 "},"K":{"ha":1267,"x_min":0,"x_max":0,"o":"m 1260 0 l 825 0 l 544 244 b 372 400 449 328 404 368 b 376 267 374 357 376 311 l 376 0 l 88 0 l 88 929 l 376 929 l 376 714 b 371 551 376 657 374 600 b 542 703 407 585 457 632 l 810 929 l 1226 929 l 871 663 b 631 492 747 569 690 528 b 875 307 683 456 756 404 "},"L":{"ha":1103,"x_min":0,"x_max":0,"o":"m 1094 239 l 908 0 l 88 0 l 88 929 l 375 929 l 375 239 "},"M":{"ha":1749,"x_min":0,"x_max":0,"o":"m 729 583 b 879 306 811 440 847 371 b 1028 582 910 371 946 439 l 1176 846 b 1335 944 1210 906 1260 944 b 1496 817 1407 944 1471 903 l 1731 0 l 1444 0 l 1357 324 b 1293 579 1328 429 1308 504 b 1164 322 1263 514 1228 443 l 1039 89 b 874 -15 990 -3 943 -15 b 708 89 804 -15 757 -3 l 583 324 b 453 579 515 451 482 517 b 390 324 439 506 418 428 l 303 0 l 21 0 l 261 817 b 424 944 286 903 351 944 b 581 846 497 944 547 907 "},"N":{"ha":1269,"x_min":0,"x_max":0,"o":"m 1029 -15 b 914 35 993 -15 958 -7 l 344 546 l 344 0 l 83 0 l 83 771 b 240 944 83 894 158 944 b 356 894 275 944 310 936 l 925 383 l 925 929 l 1188 929 l 1188 160 b 1029 -15 1188 36 1113 -15 "},"O":{"ha":1475,"x_min":0,"x_max":0,"o":"m 738 944 b 1417 465 1189 944 1417 797 b 738 -15 1417 133 1189 -15 b 58 465 285 -15 58 133 b 738 944 58 797 285 944 m 738 226 b 1131 465 1026 226 1131 265 b 738 703 1131 665 1026 703 b 344 465 449 703 344 665 b 738 226 344 265 449 226 "},"P":{"ha":1372,"x_min":0,"x_max":0,"o":"m 1314 581 b 857 238 1314 375 1146 238 l 371 238 l 371 0 l 85 0 l 85 475 l 885 475 b 1025 582 974 475 1025 518 b 885 688 1025 647 974 688 l 85 688 l 275 929 l 858 929 b 1314 581 1146 929 1314 788 "},"Q":{"ha":1475,"x_min":0,"x_max":0,"o":"m 1433 0 l 619 0 b 58 465 304 0 58 160 b 738 944 58 797 285 944 b 1417 465 1189 944 1417 797 b 1376 310 1417 407 1403 353 l 1068 310 b 1131 465 1113 343 1131 396 b 738 703 1131 665 1026 703 b 344 465 449 703 344 665 b 619 239 344 293 449 239 l 679 239 b 792 235 717 239 758 238 b 692 307 764 253 724 282 l 574 399 l 949 399 "},"R":{"ha":1421,"x_min":0,"x_max":0,"o":"m 1406 0 l 1021 0 l 814 246 l 372 246 l 372 0 l 85 0 l 85 475 l 893 475 b 1051 579 982 475 1051 515 b 893 688 1051 651 992 688 l 85 688 l 272 929 l 869 929 b 1347 597 1081 929 1347 863 b 1104 303 1347 453 1257 333 b 1235 181 1136 279 1171 246 "},"S":{"ha":1338,"x_min":0,"x_max":0,"o":"m 949 558 b 1297 304 1175 558 1297 474 b 899 0 1297 114 1182 0 l 33 0 l 218 239 l 921 239 b 1019 307 989 239 1019 258 b 921 374 1019 354 989 374 l 415 374 b 67 640 176 374 67 481 b 465 929 67 815 183 929 l 1272 929 l 1088 688 l 443 688 b 344 624 376 688 344 671 b 443 558 344 576 376 558 "},"T":{"ha":1242,"x_min":0,"x_max":0,"o":"m 1242 929 l 1056 688 l 724 688 l 724 0 l 436 0 l 436 688 l 0 688 l 186 929 "},"U":{"ha":1369,"x_min":0,"x_max":0,"o":"m 1294 406 b 715 -15 1294 125 1101 -15 b 75 406 268 -15 75 125 l 75 929 l 361 929 l 361 406 b 715 224 361 268 419 224 b 1006 406 936 224 1006 275 l 1006 929 l 1294 929 "},"V":{"ha":1576,"x_min":0,"x_max":0,"o":"m 368 929 l 786 313 l 1222 929 l 1561 929 l 967 89 b 781 -15 926 35 869 -15 b 597 89 694 -15 638 31 l 15 929 "},"W":{"ha":1750,"x_min":0,"x_max":0,"o":"m 1019 346 b 869 625 939 489 901 558 b 722 347 840 558 803 490 l 574 83 b 415 -15 540 24 490 -15 b 254 113 343 -15 279 26 l 18 929 l 306 929 l 393 606 b 456 350 422 501 442 425 b 586 607 486 415 522 486 l 711 840 b 875 944 760 932 807 944 b 1042 840 944 944 993 932 l 1165 606 b 1296 350 1235 478 1267 413 b 1360 606 1311 424 1332 503 l 1447 929 l 1728 929 l 1488 113 b 1326 -15 1463 26 1399 -15 b 1168 83 1253 -15 1203 22 "},"X":{"ha":1444,"x_min":0,"x_max":0,"o":"m 1407 929 l 1114 661 b 907 481 985 544 942 507 b 1132 279 940 458 982 419 l 1429 0 l 1024 0 l 707 307 l 381 0 l 24 0 l 326 279 b 543 469 468 410 508 443 b 326 663 508 494 472 526 l 42 929 l 440 929 l 736 640 l 1035 929 "},"Y":{"ha":1428,"x_min":0,"x_max":0,"o":"m 1418 929 l 867 307 l 867 0 l 578 0 l 578 308 l 11 929 l 381 929 l 603 671 b 729 525 632 638 710 553 b 846 672 747 551 779 592 l 1057 929 "},"Z":{"ha":1249,"x_min":0,"x_max":0,"o":"m 1064 0 l 183 0 b 50 117 111 0 50 42 b 113 232 50 160 74 201 l 451 499 b 707 693 606 622 672 668 b 388 688 657 689 572 688 l 15 688 l 199 929 l 1056 929 b 1189 813 1128 929 1189 888 b 1126 699 1189 771 1165 728 l 783 426 b 531 233 631 306 567 258 b 900 239 576 236 754 239 l 1238 239 "},"[":{"ha":442,"x_min":0,"x_max":0,"o":"m 376 933 l 278 933 l 278 -12 l 376 -12 l 376 -179 l 110 -179 l 110 1101 l 376 1101 "},"\\":{"ha":656,"x_min":0,"x_max":0,"o":"m 168 981 l 656 -53 l 476 -53 l 0 981 "},"]":{"ha":443,"x_min":0,"x_max":0,"o":"m 331 -179 l 65 -179 l 65 -12 l 164 -12 l 164 933 l 65 933 l 65 1101 l 331 1101 "},"^":{"ha":796,"x_min":0,"x_max":0,"o":"m 732 411 l 544 411 l 400 771 l 256 411 l 61 411 l 283 929 l 510 929 "},"_":{"ha":936,"x_min":0,"x_max":0,"o":"m 943 -183 l 0 -183 l 0 -58 l 943 -58 "},"`":{"ha":546,"x_min":0,"x_max":0,"o":"m 440 993 l 26 1047 l 26 1204 l 440 1108 "},"a":{"ha":1576,"x_min":0,"x_max":0,"o":"m 481 0 l 654 239 l 888 239 b 1053 236 943 239 1008 239 b 958 371 1028 269 989 326 l 792 617 l 356 0 l 15 0 l 611 840 b 797 944 650 894 707 944 b 981 840 883 944 940 899 l 1561 0 "},"b":{"ha":1339,"x_min":0,"x_max":0,"o":"m 1136 478 b 1282 271 1217 454 1282 382 b 904 0 1282 117 1197 0 l 88 0 l 88 565 l 910 565 b 990 628 951 565 990 581 b 910 688 990 674 950 688 l 88 688 l 282 929 l 897 929 b 1263 672 1119 929 1263 843 b 1136 478 1263 563 1200 501 m 376 367 l 376 239 l 906 239 b 994 304 968 239 994 261 b 906 367 994 344 968 367 "},"c":{"ha":1282,"x_min":0,"x_max":0,"o":"m 1269 239 l 1085 0 l 618 0 b 58 474 296 0 58 204 b 618 929 58 746 296 929 l 1269 929 l 1085 688 l 618 688 b 346 461 463 688 346 594 b 618 239 346 329 461 239 "},"d":{"ha":1328,"x_min":0,"x_max":0,"o":"m 1269 474 b 710 0 1269 204 1032 0 l 88 0 l 88 579 l 376 579 l 376 239 l 710 239 b 985 461 869 239 985 328 b 710 688 985 592 865 688 l 88 688 l 271 929 l 710 929 b 1269 474 1035 929 1269 742 "},"e":{"ha":1178,"x_min":0,"x_max":0,"o":"m 1167 239 l 982 0 l 88 0 l 88 929 l 1164 929 l 978 688 l 376 688 l 376 576 l 1113 576 l 947 365 l 376 365 l 376 239 "},"f":{"ha":1139,"x_min":0,"x_max":0,"o":"m 1129 929 l 943 688 l 376 688 l 376 567 l 1076 567 l 901 340 l 376 340 l 376 0 l 88 0 l 88 929 "},"g":{"ha":1333,"x_min":0,"x_max":0,"o":"m 661 581 l 1256 581 l 1256 0 l 618 0 b 58 474 296 0 58 204 b 618 929 58 746 296 929 l 1283 929 l 1097 688 l 618 688 b 344 461 463 688 344 593 b 618 239 344 326 458 239 l 969 239 l 969 374 l 489 374 "},"h":{"ha":1304,"x_min":0,"x_max":0,"o":"m 1215 0 l 929 0 l 929 358 l 376 358 l 376 0 l 88 0 l 88 929 l 376 929 l 376 600 l 929 600 l 929 929 l 1215 929 "},"i":{"ha":471,"x_min":0,"x_max":0,"o":"m 379 0 l 92 0 l 92 929 l 379 929 "},"j":{"ha":1017,"x_min":0,"x_max":0,"o":"m 363 239 b 654 422 582 239 654 289 l 654 929 l 943 929 l 943 422 b 363 0 943 140 749 0 l 15 0 l 203 239 "},"k":{"ha":1267,"x_min":0,"x_max":0,"o":"m 1260 0 l 825 0 l 544 244 b 372 400 449 328 404 368 b 376 267 374 357 376 311 l 376 0 l 88 0 l 88 929 l 376 929 l 376 714 b 371 551 376 657 374 600 b 542 703 407 585 457 632 l 810 929 l 1226 929 l 871 663 b 631 492 747 569 690 528 b 875 307 683 456 756 404 "},"l":{"ha":1103,"x_min":0,"x_max":0,"o":"m 1094 239 l 908 0 l 88 0 l 88 929 l 375 929 l 375 239 "},"m":{"ha":1749,"x_min":0,"x_max":0,"o":"m 729 583 b 879 306 811 440 847 371 b 1028 582 910 371 946 439 l 1176 846 b 1335 944 1210 906 1260 944 b 1496 817 1407 944 1471 903 l 1731 0 l 1444 0 l 1357 324 b 1293 579 1328 429 1308 504 b 1164 322 1263 514 1228 443 l 1039 89 b 874 -15 990 -3 943 -15 b 708 89 804 -15 757 -3 l 583 324 b 453 579 515 451 482 517 b 390 324 439 506 418 428 l 303 0 l 21 0 l 261 817 b 424 944 286 903 351 944 b 581 846 497 944 547 907 "},"n":{"ha":1269,"x_min":0,"x_max":0,"o":"m 1029 -15 b 914 35 993 -15 958 -7 l 344 546 l 344 0 l 83 0 l 83 771 b 240 944 83 894 158 944 b 356 894 275 944 310 936 l 925 383 l 925 929 l 1188 929 l 1188 160 b 1029 -15 1188 36 1113 -15 "},"o":{"ha":1475,"x_min":0,"x_max":0,"o":"m 738 944 b 1417 465 1189 944 1417 797 b 738 -15 1417 133 1189 -15 b 58 465 285 -15 58 133 b 738 944 58 797 285 944 m 738 226 b 1131 465 1026 226 1131 265 b 738 703 1131 665 1026 703 b 344 465 449 703 344 665 b 738 226 344 265 449 226 "},"p":{"ha":1372,"x_min":0,"x_max":0,"o":"m 1314 581 b 857 238 1314 375 1146 238 l 371 238 l 371 0 l 85 0 l 85 475 l 885 475 b 1025 582 974 475 1025 518 b 885 688 1025 647 974 688 l 85 688 l 275 929 l 858 929 b 1314 581 1146 929 1314 788 "},"q":{"ha":1475,"x_min":0,"x_max":0,"o":"m 1433 0 l 619 0 b 58 465 304 0 58 160 b 738 944 58 797 285 944 b 1417 465 1189 944 1417 797 b 1376 310 1417 407 1403 353 l 1068 310 b 1131 465 1113 343 1131 396 b 738 703 1131 665 1026 703 b 344 465 449 703 344 665 b 619 239 344 293 449 239 l 679 239 b 792 235 717 239 758 238 b 692 307 764 253 724 282 l 574 399 l 949 399 "},"r":{"ha":1421,"x_min":0,"x_max":0,"o":"m 1406 0 l 1021 0 l 814 246 l 372 246 l 372 0 l 85 0 l 85 475 l 893 475 b 1051 579 982 475 1051 515 b 893 688 1051 651 992 688 l 85 688 l 272 929 l 869 929 b 1347 597 1081 929 1347 863 b 1104 303 1347 453 1257 333 b 1235 181 1136 279 1171 246 "},"s":{"ha":1338,"x_min":0,"x_max":0,"o":"m 949 558 b 1297 304 1175 558 1297 474 b 899 0 1297 114 1182 0 l 33 0 l 218 239 l 921 239 b 1019 307 989 239 1019 258 b 921 374 1019 354 989 374 l 415 374 b 67 640 176 374 67 481 b 465 929 67 815 183 929 l 1272 929 l 1088 688 l 443 688 b 344 624 376 688 344 671 b 443 558 344 576 376 558 "},"t":{"ha":1242,"x_min":0,"x_max":0,"o":"m 1242 929 l 1056 688 l 724 688 l 724 0 l 436 0 l 436 688 l 0 688 l 186 929 "},"u":{"ha":1369,"x_min":0,"x_max":0,"o":"m 1294 406 b 715 -15 1294 125 1101 -15 b 75 406 268 -15 75 125 l 75 929 l 361 929 l 361 406 b 715 224 361 268 419 224 b 1006 406 936 224 1006 275 l 1006 929 l 1294 929 "},"v":{"ha":1576,"x_min":0,"x_max":0,"o":"m 368 929 l 786 313 l 1222 929 l 1561 929 l 967 89 b 781 -15 926 35 869 -15 b 597 89 694 -15 638 31 l 15 929 "},"w":{"ha":1750,"x_min":0,"x_max":0,"o":"m 1019 346 b 869 625 939 489 901 558 b 722 347 840 558 803 490 l 574 83 b 415 -15 540 24 490 -15 b 254 113 343 -15 279 26 l 18 929 l 306 929 l 393 606 b 456 350 422 501 442 425 b 586 607 486 415 522 486 l 711 840 b 875 944 760 932 807 944 b 1042 840 944 944 993 932 l 1165 606 b 1296 350 1235 478 1267 413 b 1360 606 1311 424 1332 503 l 1447 929 l 1728 929 l 1488 113 b 1326 -15 1463 26 1399 -15 b 1168 83 1253 -15 1203 22 "},"x":{"ha":1444,"x_min":0,"x_max":0,"o":"m 1407 929 l 1114 661 b 907 481 985 544 942 507 b 1132 279 940 458 982 419 l 1429 0 l 1024 0 l 707 307 l 381 0 l 24 0 l 326 279 b 543 469 468 410 508 443 b 326 663 508 494 472 526 l 42 929 l 440 929 l 736 640 l 1035 929 "},"y":{"ha":1428,"x_min":0,"x_max":0,"o":"m 1418 929 l 867 307 l 867 0 l 578 0 l 578 308 l 11 929 l 381 929 l 603 671 b 729 525 632 638 710 553 b 846 672 747 551 779 592 l 1057 929 "},"z":{"ha":1249,"x_min":0,"x_max":0,"o":"m 1064 0 l 183 0 b 50 117 111 0 50 42 b 113 232 50 160 74 201 l 451 499 b 707 693 606 622 672 668 b 388 688 657 689 572 688 l 15 688 l 199 929 l 1056 929 b 1189 813 1128 929 1189 888 b 1126 699 1189 771 1165 728 l 783 426 b 531 233 631 306 567 258 b 900 239 576 236 754 239 l 1238 239 "},"{":{"ha":501,"x_min":0,"x_max":0,"o":"m 435 933 b 351 903 379 933 351 922 l 351 593 b 272 457 351 522 325 478 b 351 321 325 439 351 393 l 351 18 b 435 -12 351 -1 379 -12 l 435 -179 l 342 -179 b 183 -8 235 -179 183 -122 l 183 333 b 99 383 183 367 156 382 l 99 531 b 183 579 156 532 183 549 l 183 929 b 342 1101 183 1043 235 1101 l 435 1101 "},"|":{"ha":415,"x_min":0,"x_max":0,"o":"m 283 -137 l 131 -137 l 131 1049 l 283 1049 "},"}":{"ha":501,"x_min":0,"x_max":0,"o":"m 318 579 b 403 531 318 549 346 532 l 403 383 b 318 333 346 382 318 367 l 318 -8 b 160 -179 318 -122 265 -179 l 65 -179 l 65 -12 b 150 18 122 -12 150 -1 l 150 321 b 229 457 150 393 176 439 b 150 593 176 478 150 522 l 150 903 b 65 933 150 922 122 933 l 65 1101 l 160 1101 b 318 929 265 1101 318 1043 "},"~":{"ha":788,"x_min":0,"x_max":0,"o":"m 531 307 b 228 410 428 307 329 410 b 56 296 174 410 117 378 l 56 524 b 246 615 126 597 189 615 b 551 514 347 615 443 514 b 724 625 604 514 661 543 l 724 397 b 531 307 653 326 590 307 "}," ":{"ha":532,"x_min":0,"x_max":0,"o":""},"¡":{"ha":451,"x_min":0,"x_max":0,"o":"m 88 0 l 88 310 l 119 583 l 344 583 l 375 310 l 375 0 m 385 811 b 228 675 385 725 315 675 b 72 811 142 675 72 725 b 228 944 72 896 142 944 b 385 811 315 944 385 896 "},"¢":{"ha":915,"x_min":0,"x_max":0,"o":"m 578 806 l 869 806 l 740 635 l 578 635 l 578 319 l 869 319 l 740 151 l 578 151 l 578 0 l 464 0 l 464 151 b 69 485 238 151 69 294 b 464 806 69 675 238 806 l 464 929 l 578 929 m 464 635 b 274 476 356 635 274 569 b 464 319 274 382 356 319 "},"£":{"ha":1129,"x_min":0,"x_max":0,"o":"m 282 560 l 282 640 b 685 929 282 815 403 929 l 1117 929 l 932 688 l 663 688 b 564 624 596 688 564 671 l 564 560 l 865 560 l 724 381 l 564 381 l 564 239 l 1118 239 l 932 0 l 43 0 l 229 239 l 282 239 l 282 381 l 0 381 l 140 560 "},"¥":{"ha":1428,"x_min":0,"x_max":0,"o":"m 1246 85 l 867 85 l 867 0 l 578 0 l 578 85 l 210 85 l 210 240 l 578 240 l 578 308 l 560 328 l 210 328 l 210 483 l 418 483 l 11 929 l 381 929 l 603 671 b 729 525 632 638 710 553 b 846 672 747 551 779 592 l 1057 929 l 1418 929 l 1022 483 l 1246 483 l 1246 328 l 885 328 l 867 307 l 867 240 l 1246 240 "},"¦":{"ha":415,"x_min":0,"x_max":0,"o":"m 131 -137 l 131 319 l 283 319 l 283 -137 m 283 618 l 131 618 l 131 1049 l 283 1049 "},"§":{"ha":1338,"x_min":0,"x_max":0,"o":"m 949 558 b 1297 304 1175 558 1297 474 b 1233 121 1297 225 1276 164 b 1300 -50 1278 79 1300 22 b 901 -354 1300 -240 1185 -354 l 36 -354 l 221 -115 l 924 -115 b 1022 -47 992 -115 1022 -96 b 924 19 1022 0 992 19 l 418 19 b 69 286 179 19 69 126 b 136 460 69 360 90 418 b 67 640 89 506 67 568 b 465 929 67 815 183 929 l 1272 929 l 1088 688 l 443 688 b 344 624 376 688 344 671 b 443 558 344 576 376 558 m 924 204 b 1019 307 989 204 1019 260 b 921 374 1019 354 989 374 l 440 374 b 347 269 378 374 347 315 b 446 204 347 222 379 204 "},"¨":{"ha":597,"x_min":0,"x_max":0,"o":"m 36 1118 b 154 1222 36 1185 89 1222 b 274 1118 221 1222 274 1185 b 154 1017 274 1054 221 1017 b 36 1118 89 1017 36 1054 m 325 1118 b 443 1222 325 1185 379 1222 b 563 1118 510 1222 563 1185 b 443 1017 563 1054 510 1017 b 325 1118 379 1017 325 1054 "},"©":{"ha":1081,"x_min":0,"x_max":0,"o":"m 699 317 l 642 242 l 536 242 b 297 468 399 242 297 339 b 536 686 297 599 399 686 l 699 686 l 642 610 l 536 610 b 385 463 451 610 385 550 b 536 317 385 376 449 317 m 61 465 b 542 946 61 732 276 946 b 1022 465 807 946 1022 732 b 542 -15 1022 200 807 -15 b 61 465 276 -15 61 200 m 118 464 b 544 39 118 228 307 39 b 969 464 779 39 969 228 b 544 893 969 699 779 893 b 118 464 307 893 118 699 "},"ª":{"ha":944,"x_min":0,"x_max":0,"o":"m 304 394 l 400 526 l 526 526 b 619 525 558 526 594 526 b 567 599 604 543 583 574 l 475 733 l 235 394 l 49 394 l 376 856 b 478 914 399 886 428 914 b 578 856 526 914 556 889 l 897 394 "},"«":{"ha":633,"x_min":0,"x_max":0,"o":"m 125 451 l 282 349 l 282 219 l 40 383 l 40 510 l 282 683 l 282 551 m 419 451 l 576 349 l 576 219 l 335 383 l 335 510 l 576 683 l 576 551 "},"®":{"ha":699,"x_min":0,"x_max":0,"o":"m 347 892 b 113 672 203 892 113 779 b 347 450 113 563 203 450 b 596 672 481 450 596 549 b 347 892 596 779 489 892 m 349 400 b 60 672 179 400 60 528 b 349 944 60 818 179 944 b 642 672 518 944 642 822 b 349 400 642 528 514 400 m 485 574 l 399 574 l 351 628 l 304 628 l 304 574 l 239 574 l 239 679 l 368 679 b 404 703 389 679 404 689 b 368 728 404 721 390 728 l 239 728 l 282 782 l 363 782 b 472 707 411 782 472 768 b 417 642 472 674 451 649 b 446 614 424 636 431 628 "},"¯":{"ha":546,"x_min":0,"x_max":0,"o":"m 479 1042 l 65 1042 l 65 1157 l 479 1157 "},"°":{"ha":549,"x_min":0,"x_max":0,"o":"m 278 832 b 178 732 210 832 178 799 b 278 632 178 665 210 632 b 379 729 344 632 379 665 b 278 832 379 797 344 832 m 278 944 b 490 732 419 944 490 874 b 278 519 490 590 419 519 b 65 732 136 519 65 590 b 278 944 65 874 136 944 "},"±":{"ha":874,"x_min":0,"x_max":0,"o":"m 817 -158 l 58 -158 l 58 -3 l 817 -3 m 817 394 l 514 394 l 514 92 l 358 92 l 358 394 l 58 394 l 58 550 l 358 550 l 358 850 l 514 850 l 514 550 l 817 550 "},"²":{"ha":689,"x_min":0,"x_max":0,"o":"m 164 954 l 436 954 b 636 810 578 954 636 897 b 461 676 636 731 581 676 l 240 676 b 192 642 208 676 192 665 l 192 610 l 640 610 l 547 490 l 53 490 l 53 640 b 228 768 53 726 114 768 l 449 768 b 497 801 481 768 497 778 b 449 833 497 825 481 833 l 72 833 "},"³":{"ha":672,"x_min":0,"x_max":0,"o":"m 117 610 l 435 610 b 479 640 467 610 479 619 b 435 672 479 663 467 672 l 157 672 l 232 772 l 438 772 b 478 804 458 772 478 781 b 438 833 478 826 457 833 l 49 833 l 140 954 l 431 954 b 614 825 543 954 614 910 b 551 729 614 771 582 739 b 624 625 592 717 624 681 b 435 490 624 547 581 490 l 26 490 "},"´":{"ha":546,"x_min":0,"x_max":0,"o":"m 519 1047 l 106 993 l 106 1108 l 519 1204 "},"·":{"ha":429,"x_min":0,"x_max":0,"o":"m 58 468 b 214 604 58 554 128 604 b 371 468 301 604 371 554 b 214 335 371 383 301 335 b 58 468 128 335 58 383 "},"¸":{"ha":414,"x_min":0,"x_max":0,"o":"m 306 -43 l 190 -354 l 90 -354 l 90 -43 "},"¹":{"ha":349,"x_min":0,"x_max":0,"o":"m 114 954 l 285 954 l 285 490 l 140 490 l 140 833 l 28 833 "},"º":{"ha":890,"x_min":0,"x_max":0,"o":"m 446 914 b 819 650 694 914 819 833 b 446 385 819 468 694 385 b 71 650 196 385 71 468 b 446 914 71 833 196 914 m 446 519 b 661 650 604 519 661 540 b 446 781 661 760 604 781 b 229 650 286 781 229 760 b 446 519 229 540 286 519 "},"»":{"ha":633,"x_min":0,"x_max":0,"o":"m 64 551 l 64 683 l 307 510 l 307 383 l 64 219 l 64 349 l 222 451 m 358 551 l 358 683 l 600 510 l 600 383 l 358 219 l 358 349 l 515 451 "},"¼":{"ha":1286,"x_min":0,"x_max":0,"o":"m 144 954 l 315 954 l 315 490 l 171 490 l 171 833 l 58 833 m 976 981 l 236 -53 l 110 -53 l 860 981 m 656 42 b 585 106 611 42 585 72 b 615 161 585 124 594 144 l 950 433 b 1017 458 974 453 999 458 b 1096 372 1057 458 1096 433 l 1096 157 l 1228 157 l 1144 42 l 1096 42 l 1096 -12 l 957 -12 l 957 42 m 957 225 b 960 285 957 254 958 269 b 910 242 949 274 932 260 l 858 200 b 796 154 833 179 811 165 b 875 157 815 156 840 157 l 957 157 "},"½":{"ha":1319,"x_min":0,"x_max":0,"o":"m 144 954 l 315 954 l 315 490 l 171 490 l 171 833 l 58 833 m 964 981 l 224 -53 l 97 -53 l 847 981 m 786 451 l 1058 451 b 1258 307 1200 451 1258 394 b 1083 174 1258 228 1203 174 l 863 174 b 814 139 831 174 814 163 l 814 107 l 1263 107 l 1169 -12 l 675 -12 l 675 138 b 850 265 675 224 736 265 l 1071 265 b 1119 299 1103 265 1119 275 b 1071 331 1119 322 1103 331 l 694 331 "},"¾":{"ha":1468,"x_min":0,"x_max":0,"o":"m 149 610 l 467 610 b 511 640 499 610 511 619 b 467 672 511 663 499 672 l 189 672 l 264 772 l 469 772 b 510 804 490 772 510 781 b 469 833 510 826 489 833 l 81 833 l 172 954 l 463 954 b 646 825 575 954 646 910 b 583 729 646 771 614 739 b 656 625 624 717 656 681 b 467 490 656 547 613 490 l 58 490 m 1183 981 l 443 -53 l 317 -53 l 1067 981 m 838 42 b 767 106 793 42 767 72 b 797 161 767 124 776 144 l 1132 433 b 1199 458 1156 453 1181 458 b 1278 372 1239 458 1278 433 l 1278 157 l 1410 157 l 1326 42 l 1278 42 l 1278 -12 l 1139 -12 l 1139 42 m 1139 225 b 1142 285 1139 254 1140 269 b 1092 242 1131 274 1114 260 l 1040 200 b 978 154 1015 179 993 165 b 1057 157 997 156 1022 157 l 1139 157 "},"¿":{"ha":1032,"x_min":0,"x_max":0,"o":"m 831 0 l 436 0 b 39 289 154 0 39 114 b 386 556 39 449 147 556 l 526 556 b 554 578 546 556 554 564 l 554 583 l 792 583 l 792 554 b 574 371 792 438 732 371 l 414 371 b 315 306 347 371 315 353 b 414 242 315 258 347 242 l 1017 242 m 818 811 b 661 675 818 725 749 675 b 506 811 575 675 506 725 b 661 944 506 896 575 944 b 818 811 749 944 818 896 "},"À":{"ha":1576,"x_min":0,"x_max":0,"o":"m 481 0 l 654 239 l 888 239 b 1053 236 943 239 1008 239 b 958 371 1028 269 989 326 l 792 617 l 356 0 l 15 0 l 611 840 b 797 944 650 894 707 944 b 981 840 883 944 940 899 l 1561 0 m 956 993 l 542 1047 l 542 1204 l 956 1108 "},"Á":{"ha":1576,"x_min":0,"x_max":0,"o":"m 481 0 l 654 239 l 888 239 b 1053 236 943 239 1008 239 b 958 371 1028 269 989 326 l 792 617 l 356 0 l 15 0 l 611 840 b 797 944 650 894 707 944 b 981 840 883 944 940 899 l 1561 0 m 1035 1047 l 621 993 l 621 1108 l 1035 1204 "},"Â":{"ha":1576,"x_min":0,"x_max":0,"o":"m 481 0 l 654 239 l 888 239 b 1053 236 943 239 1008 239 b 958 371 1028 269 989 326 l 792 617 l 356 0 l 15 0 l 611 840 b 797 944 650 894 707 944 b 981 840 883 944 940 899 l 1561 0 m 1010 993 l 872 993 l 794 1133 l 782 1133 l 706 993 l 567 993 l 699 1204 l 881 1204 "},"Ã":{"ha":1576,"x_min":0,"x_max":0,"o":"m 481 0 l 654 239 l 888 239 b 1053 236 943 239 1008 239 b 958 371 1028 269 989 326 l 792 617 l 356 0 l 15 0 l 611 840 b 797 944 650 894 707 944 b 981 840 883 944 940 899 l 1561 0 m 889 1017 b 688 1074 818 1017 760 1074 b 581 1024 644 1074 604 1051 l 581 1139 b 688 1181 607 1168 646 1181 b 889 1122 760 1181 817 1122 b 994 1172 932 1122 971 1144 l 994 1058 b 889 1017 968 1028 931 1017 "},"Ä":{"ha":1576,"x_min":0,"x_max":0,"o":"m 481 0 l 654 239 l 888 239 b 1053 236 943 239 1008 239 b 958 371 1028 269 989 326 l 792 617 l 356 0 l 15 0 l 611 840 b 797 944 650 894 707 944 b 981 840 883 944 940 899 l 1561 0 m 525 1118 b 643 1222 525 1185 578 1222 b 763 1118 710 1222 763 1185 b 643 1017 763 1054 710 1017 b 525 1118 578 1017 525 1054 m 814 1118 b 932 1222 814 1185 868 1222 b 1051 1118 999 1222 1051 1185 b 932 1017 1051 1054 999 1017 b 814 1118 868 1017 814 1054 "},"Å":{"ha":1576,"x_min":0,"x_max":0,"o":"m 481 0 l 654 239 l 888 239 b 1053 236 943 239 1008 239 b 958 371 1028 269 989 326 l 792 617 l 356 0 l 15 0 l 611 840 b 797 944 650 894 707 944 b 981 840 883 944 940 899 l 1561 0 m 722 1213 b 696 1188 706 1213 696 1203 l 696 1117 b 722 1092 696 1100 706 1092 l 853 1092 b 881 1117 872 1092 881 1100 l 881 1188 b 853 1213 881 1204 872 1213 m 989 1108 b 844 993 989 1031 940 993 l 731 993 b 588 1108 635 993 588 1031 l 588 1196 b 731 1313 588 1274 635 1313 l 844 1313 b 989 1196 940 1313 989 1274 "},"Æ":{"ha":2003,"x_min":0,"x_max":0,"o":"m 1989 929 l 1803 688 l 1201 688 l 1201 576 l 1938 576 l 1774 365 l 1201 365 l 1201 239 l 1993 239 l 1807 0 l 914 0 l 914 688 l 840 688 l 356 0 l 15 0 l 600 824 b 785 929 639 879 696 929 "},"Ç":{"ha":1282,"x_min":0,"x_max":0,"o":"m 1269 239 l 1085 0 l 618 0 b 58 474 296 0 58 204 b 618 929 58 746 296 929 l 1269 929 l 1085 688 l 618 688 b 346 461 463 688 346 594 b 618 239 346 329 461 239 m 832 -43 l 718 -354 l 618 -354 l 618 -43 "},"È":{"ha":1178,"x_min":0,"x_max":0,"o":"m 1167 239 l 982 0 l 88 0 l 88 929 l 1164 929 l 978 688 l 376 688 l 376 576 l 1113 576 l 947 365 l 376 365 l 376 239 m 769 993 l 356 1047 l 356 1204 l 769 1108 "},"É":{"ha":1178,"x_min":0,"x_max":0,"o":"m 1167 239 l 982 0 l 88 0 l 88 929 l 1164 929 l 978 688 l 376 688 l 376 576 l 1113 576 l 947 365 l 376 365 l 376 239 m 822 1047 l 408 993 l 408 1108 l 822 1204 "},"Ê":{"ha":1178,"x_min":0,"x_max":0,"o":"m 1167 239 l 982 0 l 88 0 l 88 929 l 1164 929 l 978 688 l 376 688 l 376 576 l 1113 576 l 947 365 l 376 365 l 376 239 m 824 993 l 686 993 l 608 1133 l 596 1133 l 519 993 l 381 993 l 513 1204 l 694 1204 "},"Ë":{"ha":1178,"x_min":0,"x_max":0,"o":"m 1167 239 l 982 0 l 88 0 l 88 929 l 1164 929 l 978 688 l 376 688 l 376 576 l 1113 576 l 947 365 l 376 365 l 376 239 m 321 1118 b 439 1222 321 1185 374 1222 b 558 1118 506 1222 558 1185 b 439 1017 558 1054 506 1017 b 321 1118 374 1017 321 1054 m 610 1118 b 728 1222 610 1185 664 1222 b 847 1118 794 1222 847 1185 b 728 1017 847 1054 794 1017 b 610 1118 664 1017 610 1054 "},"Ì":{"ha":471,"x_min":0,"x_max":0,"o":"m 379 0 l 92 0 l 92 929 l 379 929 m 404 993 l -10 1047 l -10 1204 l 404 1108 "},"Í":{"ha":471,"x_min":0,"x_max":0,"o":"m 379 0 l 92 0 l 92 929 l 379 929 m 483 1047 l 69 993 l 69 1108 l 483 1204 "},"Î":{"ha":471,"x_min":0,"x_max":0,"o":"m 379 0 l 92 0 l 92 929 l 379 929 m 457 993 l 319 993 l 242 1133 l 229 1133 l 153 993 l 14 993 l 146 1204 l 328 1204 "},"Ï":{"ha":471,"x_min":0,"x_max":0,"o":"m 379 0 l 92 0 l 92 929 l 379 929 m -26 1118 b 92 1222 -26 1185 26 1222 b 211 1118 158 1222 211 1185 b 92 1017 211 1054 158 1017 b -26 1118 26 1017 -26 1054 m 263 1118 b 381 1222 263 1185 317 1222 b 500 1118 447 1222 500 1185 b 381 1017 500 1054 447 1017 b 263 1118 317 1017 263 1054 "},"Ð":{"ha":1446,"x_min":0,"x_max":0,"o":"m 829 576 l 665 365 l 494 365 l 494 239 l 828 239 b 1103 461 988 239 1103 328 b 828 688 1103 592 983 688 l 207 688 l 389 929 l 828 929 b 1388 474 1153 929 1388 742 b 828 0 1388 204 1150 0 l 207 0 l 207 365 l 0 365 l 164 576 "},"Ñ":{"ha":1269,"x_min":0,"x_max":0,"o":"m 1029 -15 b 914 35 993 -15 958 -7 l 344 546 l 344 0 l 83 0 l 83 771 b 240 944 83 894 158 944 b 356 894 275 944 310 936 l 925 383 l 925 929 l 1188 929 l 1188 160 b 1029 -15 1188 36 1113 -15 m 731 1017 b 529 1074 660 1017 601 1074 b 422 1024 486 1074 446 1051 l 422 1139 b 529 1181 449 1168 488 1181 b 731 1122 601 1181 658 1122 b 836 1172 774 1122 813 1144 l 836 1058 b 731 1017 810 1028 772 1017 "},"Ò":{"ha":1475,"x_min":0,"x_max":0,"o":"m 738 944 b 1417 465 1189 944 1417 797 b 738 -15 1417 133 1189 -15 b 58 465 285 -15 58 133 b 738 944 58 797 285 944 m 738 226 b 1131 465 1026 226 1131 265 b 738 703 1131 665 1026 703 b 344 465 449 703 344 665 b 738 226 344 265 449 226 m 904 993 l 490 1047 l 490 1204 l 904 1108 "},"Ó":{"ha":1475,"x_min":0,"x_max":0,"o":"m 738 944 b 1417 465 1189 944 1417 797 b 738 -15 1417 133 1189 -15 b 58 465 285 -15 58 133 b 738 944 58 797 285 944 m 738 226 b 1131 465 1026 226 1131 265 b 738 703 1131 665 1026 703 b 344 465 449 703 344 665 b 738 226 344 265 449 226 m 983 1047 l 569 993 l 569 1108 l 983 1204 "},"Ô":{"ha":1475,"x_min":0,"x_max":0,"o":"m 738 944 b 1417 465 1189 944 1417 797 b 738 -15 1417 133 1189 -15 b 58 465 285 -15 58 133 b 738 944 58 797 285 944 m 738 226 b 1131 465 1026 226 1131 265 b 738 703 1131 665 1026 703 b 344 465 449 703 344 665 b 738 226 344 265 449 226 m 958 993 l 821 993 l 743 1133 l 731 1133 l 654 993 l 515 993 l 647 1204 l 829 1204 "},"Õ":{"ha":1475,"x_min":0,"x_max":0,"o":"m 738 944 b 1417 465 1189 944 1417 797 b 738 -15 1417 133 1189 -15 b 58 465 285 -15 58 133 b 738 944 58 797 285 944 m 738 226 b 1131 465 1026 226 1131 265 b 738 703 1131 665 1026 703 b 344 465 449 703 344 665 b 738 226 344 265 449 226 m 838 1017 b 636 1074 767 1017 708 1074 b 529 1024 593 1074 553 1051 l 529 1139 b 636 1181 556 1168 594 1181 b 838 1122 708 1181 765 1122 b 943 1172 881 1122 919 1144 l 943 1058 b 838 1017 917 1028 879 1017 "},"Ö":{"ha":1475,"x_min":0,"x_max":0,"o":"m 738 944 b 1417 465 1189 944 1417 797 b 738 -15 1417 133 1189 -15 b 58 465 285 -15 58 133 b 738 944 58 797 285 944 m 738 226 b 1131 465 1026 226 1131 265 b 738 703 1131 665 1026 703 b 344 465 449 703 344 665 b 738 226 344 265 449 226 m 475 1118 b 593 1222 475 1185 528 1222 b 713 1118 660 1222 713 1185 b 593 1017 713 1054 660 1017 b 475 1118 528 1017 475 1054 m 764 1118 b 882 1222 764 1185 818 1222 b 1001 1118 949 1222 1001 1185 b 882 1017 1001 1054 949 1017 b 764 1118 818 1017 764 1054 "},"×":{"ha":874,"x_min":0,"x_max":0,"o":"m 626 154 l 414 368 l 200 156 l 90 264 l 304 478 l 92 692 l 201 800 l 414 588 l 626 800 l 736 690 l 524 478 l 738 264 "},"Ø":{"ha":1475,"x_min":0,"x_max":0,"o":"m 738 944 b 1114 894 888 944 1014 928 l 1218 994 l 1289 929 l 1210 853 b 1417 465 1347 775 1417 649 b 738 -15 1417 133 1189 -15 b 358 36 585 -15 460 0 l 254 -65 l 186 0 l 265 76 b 58 465 126 154 58 282 b 738 944 58 797 285 944 m 738 226 b 1131 465 1026 226 1131 265 b 1018 671 1131 576 1097 638 l 565 233 b 738 226 613 228 671 226 m 344 465 b 454 258 344 354 376 292 l 907 696 b 738 703 860 700 803 703 b 344 465 449 703 344 665 "},"Ù":{"ha":1369,"x_min":0,"x_max":0,"o":"m 1294 406 b 715 -15 1294 125 1101 -15 b 75 406 268 -15 75 125 l 75 929 l 361 929 l 361 406 b 715 224 361 268 419 224 b 1006 406 936 224 1006 275 l 1006 929 l 1294 929 m 851 993 l 438 1047 l 438 1204 l 851 1108 "},"Ú":{"ha":1369,"x_min":0,"x_max":0,"o":"m 1294 406 b 715 -15 1294 125 1101 -15 b 75 406 268 -15 75 125 l 75 929 l 361 929 l 361 406 b 715 224 361 268 419 224 b 1006 406 936 224 1006 275 l 1006 929 l 1294 929 m 931 1047 l 517 993 l 517 1108 l 931 1204 "},"Û":{"ha":1369,"x_min":0,"x_max":0,"o":"m 1294 406 b 715 -15 1294 125 1101 -15 b 75 406 268 -15 75 125 l 75 929 l 361 929 l 361 406 b 715 224 361 268 419 224 b 1006 406 936 224 1006 275 l 1006 929 l 1294 929 m 906 993 l 768 993 l 690 1133 l 678 1133 l 601 993 l 463 993 l 594 1204 l 776 1204 "},"Ü":{"ha":1369,"x_min":0,"x_max":0,"o":"m 1294 406 b 715 -15 1294 125 1101 -15 b 75 406 268 -15 75 125 l 75 929 l 361 929 l 361 406 b 715 224 361 268 419 224 b 1006 406 936 224 1006 275 l 1006 929 l 1294 929 m 422 1118 b 540 1222 422 1185 475 1222 b 660 1118 607 1222 660 1185 b 540 1017 660 1054 607 1017 b 422 1118 475 1017 422 1054 m 711 1118 b 829 1222 711 1185 765 1222 b 949 1118 896 1222 949 1185 b 829 1017 949 1054 896 1017 b 711 1118 765 1017 711 1054 "},"Ý":{"ha":1428,"x_min":0,"x_max":0,"o":"m 1418 929 l 867 307 l 867 0 l 578 0 l 578 308 l 11 929 l 381 929 l 603 671 b 729 525 632 638 710 553 b 846 672 747 551 779 592 l 1057 929 m 954 1047 l 540 993 l 540 1108 l 954 1204 "},"Þ":{"ha":1331,"x_min":0,"x_max":0,"o":"m 88 929 l 375 929 l 375 799 l 821 799 b 1279 456 1111 799 1279 663 b 822 108 1279 250 1111 108 l 443 108 l 633 350 l 849 350 b 990 454 939 350 990 390 b 849 563 990 519 939 563 l 375 563 l 375 0 l 88 0 "},"ß":{"ha":2676,"x_min":0,"x_max":0,"o":"m 949 558 b 1297 304 1175 558 1297 474 b 899 0 1297 114 1182 0 l 33 0 l 218 239 l 921 239 b 1019 307 989 239 1019 258 b 921 374 1019 354 989 374 l 415 374 b 67 640 176 374 67 481 b 465 929 67 815 183 929 l 1272 929 l 1088 688 l 443 688 b 344 624 376 688 344 671 b 443 558 344 576 376 558 m 2286 558 b 2635 304 2513 558 2635 474 b 2236 0 2635 114 2519 0 l 1371 0 l 1556 239 l 2258 239 b 2357 307 2326 239 2357 258 b 2258 374 2357 354 2326 374 l 1753 374 b 1404 640 1514 374 1404 481 b 1803 929 1404 815 1521 929 l 2610 929 l 2425 688 l 1781 688 b 1682 624 1714 688 1682 671 b 1781 558 1682 576 1714 558 "},"à":{"ha":1576,"x_min":0,"x_max":0,"o":"m 481 0 l 654 239 l 888 239 b 1053 236 943 239 1008 239 b 958 371 1028 269 989 326 l 792 617 l 356 0 l 15 0 l 611 840 b 797 944 650 894 707 944 b 981 840 883 944 940 899 l 1561 0 m 956 993 l 542 1047 l 542 1204 l 956 1108 "},"á":{"ha":1576,"x_min":0,"x_max":0,"o":"m 481 0 l 654 239 l 888 239 b 1053 236 943 239 1008 239 b 958 371 1028 269 989 326 l 792 617 l 356 0 l 15 0 l 611 840 b 797 944 650 894 707 944 b 981 840 883 944 940 899 l 1561 0 m 1035 1047 l 621 993 l 621 1108 l 1035 1204 "},"â":{"ha":1576,"x_min":0,"x_max":0,"o":"m 481 0 l 654 239 l 888 239 b 1053 236 943 239 1008 239 b 958 371 1028 269 989 326 l 792 617 l 356 0 l 15 0 l 611 840 b 797 944 650 894 707 944 b 981 840 883 944 940 899 l 1561 0 m 1010 993 l 872 993 l 794 1133 l 782 1133 l 706 993 l 567 993 l 699 1204 l 881 1204 "},"ã":{"ha":1576,"x_min":0,"x_max":0,"o":"m 481 0 l 654 239 l 888 239 b 1053 236 943 239 1008 239 b 958 371 1028 269 989 326 l 792 617 l 356 0 l 15 0 l 611 840 b 797 944 650 894 707 944 b 981 840 883 944 940 899 l 1561 0 m 889 1017 b 688 1074 818 1017 760 1074 b 581 1024 644 1074 604 1051 l 581 1139 b 688 1181 607 1168 646 1181 b 889 1122 760 1181 817 1122 b 994 1172 932 1122 971 1144 l 994 1058 b 889 1017 968 1028 931 1017 "},"ä":{"ha":1576,"x_min":0,"x_max":0,"o":"m 481 0 l 654 239 l 888 239 b 1053 236 943 239 1008 239 b 958 371 1028 269 989 326 l 792 617 l 356 0 l 15 0 l 611 840 b 797 944 650 894 707 944 b 981 840 883 944 940 899 l 1561 0 m 525 1118 b 643 1222 525 1185 578 1222 b 763 1118 710 1222 763 1185 b 643 1017 763 1054 710 1017 b 525 1118 578 1017 525 1054 m 814 1118 b 932 1222 814 1185 868 1222 b 1051 1118 999 1222 1051 1185 b 932 1017 1051 1054 999 1017 b 814 1118 868 1017 814 1054 "},"å":{"ha":1576,"x_min":0,"x_max":0,"o":"m 481 0 l 654 239 l 888 239 b 1053 236 943 239 1008 239 b 958 371 1028 269 989 326 l 792 617 l 356 0 l 15 0 l 611 840 b 797 944 650 894 707 944 b 981 840 883 944 940 899 l 1561 0 m 722 1213 b 696 1188 706 1213 696 1203 l 696 1117 b 722 1092 696 1100 706 1092 l 853 1092 b 881 1117 872 1092 881 1100 l 881 1188 b 853 1213 881 1204 872 1213 m 989 1108 b 844 993 989 1031 940 993 l 731 993 b 588 1108 635 993 588 1031 l 588 1196 b 731 1313 588 1274 635 1313 l 844 1313 b 989 1196 940 1313 989 1274 "},"æ":{"ha":2003,"x_min":0,"x_max":0,"o":"m 1989 929 l 1803 688 l 1201 688 l 1201 576 l 1938 576 l 1774 365 l 1201 365 l 1201 239 l 1993 239 l 1807 0 l 914 0 l 914 688 l 840 688 l 356 0 l 15 0 l 600 824 b 785 929 639 879 696 929 "},"ç":{"ha":1282,"x_min":0,"x_max":0,"o":"m 1269 239 l 1085 0 l 618 0 b 58 474 296 0 58 204 b 618 929 58 746 296 929 l 1269 929 l 1085 688 l 618 688 b 346 461 463 688 346 594 b 618 239 346 329 461 239 m 832 -43 l 718 -354 l 618 -354 l 618 -43 "},"è":{"ha":1178,"x_min":0,"x_max":0,"o":"m 1167 239 l 982 0 l 88 0 l 88 929 l 1164 929 l 978 688 l 376 688 l 376 576 l 1113 576 l 947 365 l 376 365 l 376 239 m 769 993 l 356 1047 l 356 1204 l 769 1108 "},"é":{"ha":1178,"x_min":0,"x_max":0,"o":"m 1167 239 l 982 0 l 88 0 l 88 929 l 1164 929 l 978 688 l 376 688 l 376 576 l 1113 576 l 947 365 l 376 365 l 376 239 m 822 1047 l 408 993 l 408 1108 l 822 1204 "},"ê":{"ha":1178,"x_min":0,"x_max":0,"o":"m 1167 239 l 982 0 l 88 0 l 88 929 l 1164 929 l 978 688 l 376 688 l 376 576 l 1113 576 l 947 365 l 376 365 l 376 239 m 824 993 l 686 993 l 608 1133 l 596 1133 l 519 993 l 381 993 l 513 1204 l 694 1204 "},"ë":{"ha":1178,"x_min":0,"x_max":0,"o":"m 1167 239 l 982 0 l 88 0 l 88 929 l 1164 929 l 978 688 l 376 688 l 376 576 l 1113 576 l 947 365 l 376 365 l 376 239 m 321 1118 b 439 1222 321 1185 374 1222 b 558 1118 506 1222 558 1185 b 439 1017 558 1054 506 1017 b 321 1118 374 1017 321 1054 m 610 1118 b 728 1222 610 1185 664 1222 b 847 1118 794 1222 847 1185 b 728 1017 847 1054 794 1017 b 610 1118 664 1017 610 1054 "},"ì":{"ha":471,"x_min":0,"x_max":0,"o":"m 379 0 l 92 0 l 92 929 l 379 929 m 404 993 l -10 1047 l -10 1204 l 404 1108 "},"í":{"ha":471,"x_min":0,"x_max":0,"o":"m 379 0 l 92 0 l 92 929 l 379 929 m 483 1047 l 69 993 l 69 1108 l 483 1204 "},"î":{"ha":471,"x_min":0,"x_max":0,"o":"m 379 0 l 92 0 l 92 929 l 379 929 m 457 993 l 319 993 l 242 1133 l 229 1133 l 153 993 l 14 993 l 146 1204 l 328 1204 "},"ï":{"ha":471,"x_min":0,"x_max":0,"o":"m 379 0 l 92 0 l 92 929 l 379 929 m -26 1118 b 92 1222 -26 1185 26 1222 b 211 1118 158 1222 211 1185 b 92 1017 211 1054 158 1017 b -26 1118 26 1017 -26 1054 m 263 1118 b 381 1222 263 1185 317 1222 b 500 1118 447 1222 500 1185 b 381 1017 500 1054 447 1017 b 263 1118 317 1017 263 1054 "},"ð":{"ha":1446,"x_min":0,"x_max":0,"o":"m 829 576 l 665 365 l 494 365 l 494 239 l 828 239 b 1103 461 988 239 1103 328 b 828 688 1103 592 983 688 l 207 688 l 389 929 l 828 929 b 1388 474 1153 929 1388 742 b 828 0 1388 204 1150 0 l 207 0 l 207 365 l 0 365 l 164 576 "},"ñ":{"ha":1269,"x_min":0,"x_max":0,"o":"m 1029 -15 b 914 35 993 -15 958 -7 l 344 546 l 344 0 l 83 0 l 83 771 b 240 944 83 894 158 944 b 356 894 275 944 310 936 l 925 383 l 925 929 l 1188 929 l 1188 160 b 1029 -15 1188 36 1113 -15 m 731 1017 b 529 1074 660 1017 601 1074 b 422 1024 486 1074 446 1051 l 422 1139 b 529 1181 449 1168 488 1181 b 731 1122 601 1181 658 1122 b 836 1172 774 1122 813 1144 l 836 1058 b 731 1017 810 1028 772 1017 "},"ò":{"ha":1475,"x_min":0,"x_max":0,"o":"m 738 944 b 1417 465 1189 944 1417 797 b 738 -15 1417 133 1189 -15 b 58 465 285 -15 58 133 b 738 944 58 797 285 944 m 738 226 b 1131 465 1026 226 1131 265 b 738 703 1131 665 1026 703 b 344 465 449 703 344 665 b 738 226 344 265 449 226 m 904 993 l 490 1047 l 490 1204 l 904 1108 "},"ó":{"ha":1475,"x_min":0,"x_max":0,"o":"m 738 944 b 1417 465 1189 944 1417 797 b 738 -15 1417 133 1189 -15 b 58 465 285 -15 58 133 b 738 944 58 797 285 944 m 738 226 b 1131 465 1026 226 1131 265 b 738 703 1131 665 1026 703 b 344 465 449 703 344 665 b 738 226 344 265 449 226 m 983 1047 l 569 993 l 569 1108 l 983 1204 "},"ô":{"ha":1475,"x_min":0,"x_max":0,"o":"m 738 944 b 1417 465 1189 944 1417 797 b 738 -15 1417 133 1189 -15 b 58 465 285 -15 58 133 b 738 944 58 797 285 944 m 738 226 b 1131 465 1026 226 1131 265 b 738 703 1131 665 1026 703 b 344 465 449 703 344 665 b 738 226 344 265 449 226 m 958 993 l 821 993 l 743 1133 l 731 1133 l 654 993 l 515 993 l 647 1204 l 829 1204 "},"õ":{"ha":1475,"x_min":0,"x_max":0,"o":"m 738 944 b 1417 465 1189 944 1417 797 b 738 -15 1417 133 1189 -15 b 58 465 285 -15 58 133 b 738 944 58 797 285 944 m 738 226 b 1131 465 1026 226 1131 265 b 738 703 1131 665 1026 703 b 344 465 449 703 344 665 b 738 226 344 265 449 226 m 838 1017 b 636 1074 767 1017 708 1074 b 529 1024 593 1074 553 1051 l 529 1139 b 636 1181 556 1168 594 1181 b 838 1122 708 1181 765 1122 b 943 1172 881 1122 919 1144 l 943 1058 b 838 1017 917 1028 879 1017 "},"ö":{"ha":1475,"x_min":0,"x_max":0,"o":"m 738 944 b 1417 465 1189 944 1417 797 b 738 -15 1417 133 1189 -15 b 58 465 285 -15 58 133 b 738 944 58 797 285 944 m 738 226 b 1131 465 1026 226 1131 265 b 738 703 1131 665 1026 703 b 344 465 449 703 344 665 b 738 226 344 265 449 226 m 475 1118 b 593 1222 475 1185 528 1222 b 713 1118 660 1222 713 1185 b 593 1017 713 1054 660 1017 b 475 1118 528 1017 475 1054 m 764 1118 b 882 1222 764 1185 818 1222 b 1001 1118 949 1222 1001 1185 b 882 1017 1001 1054 949 1017 b 764 1118 818 1017 764 1054 "},"÷":{"ha":874,"x_min":0,"x_max":0,"o":"m 817 394 l 58 394 l 58 550 l 817 550 m 281 794 b 436 931 281 881 350 931 b 593 794 524 931 593 881 b 436 661 593 710 524 661 b 281 794 350 661 281 710 m 281 140 b 436 276 281 226 350 276 b 593 140 524 276 593 226 b 436 7 593 56 524 7 b 281 140 350 7 281 56 "},"ø":{"ha":1475,"x_min":0,"x_max":0,"o":"m 738 944 b 1114 894 888 944 1014 928 l 1218 994 l 1289 929 l 1210 853 b 1417 465 1347 775 1417 649 b 738 -15 1417 133 1189 -15 b 358 36 585 -15 460 0 l 254 -65 l 186 0 l 265 76 b 58 465 126 154 58 282 b 738 944 58 797 285 944 m 738 226 b 1131 465 1026 226 1131 265 b 1018 671 1131 576 1097 638 l 565 233 b 738 226 613 228 671 226 m 344 465 b 454 258 344 354 376 292 l 907 696 b 738 703 860 700 803 703 b 344 465 449 703 344 665 "},"ù":{"ha":1369,"x_min":0,"x_max":0,"o":"m 1294 406 b 715 -15 1294 125 1101 -15 b 75 406 268 -15 75 125 l 75 929 l 361 929 l 361 406 b 715 224 361 268 419 224 b 1006 406 936 224 1006 275 l 1006 929 l 1294 929 m 851 993 l 438 1047 l 438 1204 l 851 1108 "},"ú":{"ha":1369,"x_min":0,"x_max":0,"o":"m 1294 406 b 715 -15 1294 125 1101 -15 b 75 406 268 -15 75 125 l 75 929 l 361 929 l 361 406 b 715 224 361 268 419 224 b 1006 406 936 224 1006 275 l 1006 929 l 1294 929 m 931 1047 l 517 993 l 517 1108 l 931 1204 "},"û":{"ha":1369,"x_min":0,"x_max":0,"o":"m 1294 406 b 715 -15 1294 125 1101 -15 b 75 406 268 -15 75 125 l 75 929 l 361 929 l 361 406 b 715 224 361 268 419 224 b 1006 406 936 224 1006 275 l 1006 929 l 1294 929 m 906 993 l 768 993 l 690 1133 l 678 1133 l 601 993 l 463 993 l 594 1204 l 776 1204 "},"ü":{"ha":1369,"x_min":0,"x_max":0,"o":"m 1294 406 b 715 -15 1294 125 1101 -15 b 75 406 268 -15 75 125 l 75 929 l 361 929 l 361 406 b 715 224 361 268 419 224 b 1006 406 936 224 1006 275 l 1006 929 l 1294 929 m 422 1118 b 540 1222 422 1185 475 1222 b 660 1118 607 1222 660 1185 b 540 1017 660 1054 607 1017 b 422 1118 475 1017 422 1054 m 711 1118 b 829 1222 711 1185 765 1222 b 949 1118 896 1222 949 1185 b 829 1017 949 1054 896 1017 b 711 1118 765 1017 711 1054 "},"ý":{"ha":1428,"x_min":0,"x_max":0,"o":"m 1418 929 l 867 307 l 867 0 l 578 0 l 578 308 l 11 929 l 381 929 l 603 671 b 729 525 632 638 710 553 b 846 672 747 551 779 592 l 1057 929 m 954 1047 l 540 993 l 540 1108 l 954 1204 "},"þ":{"ha":1331,"x_min":0,"x_max":0,"o":"m 88 929 l 375 929 l 375 799 l 821 799 b 1279 456 1111 799 1279 663 b 822 108 1279 250 1111 108 l 443 108 l 633 350 l 849 350 b 990 454 939 350 990 390 b 849 563 990 519 939 563 l 375 563 l 375 0 l 88 0 "},"ÿ":{"ha":1428,"x_min":0,"x_max":0,"o":"m 1418 929 l 867 307 l 867 0 l 578 0 l 578 308 l 11 929 l 381 929 l 603 671 b 729 525 632 638 710 553 b 846 672 747 551 779 592 l 1057 929 m 465 1118 b 583 1222 465 1185 518 1222 b 703 1118 650 1222 703 1185 b 583 1017 703 1054 650 1017 b 465 1118 518 1017 465 1054 m 754 1118 b 872 1222 754 1185 808 1222 b 992 1118 939 1222 992 1185 b 872 1017 992 1054 939 1017 b 754 1118 808 1017 754 1054 "},"Ā":{"ha":1576,"x_min":0,"x_max":0,"o":"m 481 0 l 654 239 l 888 239 b 1053 236 943 239 1008 239 b 958 371 1028 269 989 326 l 792 617 l 356 0 l 15 0 l 611 840 b 797 944 650 894 707 944 b 981 840 883 944 940 899 l 1561 0 m 994 1042 l 581 1042 l 581 1157 l 994 1157 "},"ā":{"ha":1576,"x_min":0,"x_max":0,"o":"m 481 0 l 654 239 l 888 239 b 1053 236 943 239 1008 239 b 958 371 1028 269 989 326 l 792 617 l 356 0 l 15 0 l 611 840 b 797 944 650 894 707 944 b 981 840 883 944 940 899 l 1561 0 m 994 1042 l 581 1042 l 581 1157 l 994 1157 "},"Ă":{"ha":1576,"x_min":0,"x_max":0,"o":"m 481 0 l 654 239 l 888 239 b 1053 236 943 239 1008 239 b 958 371 1028 269 989 326 l 792 617 l 356 0 l 15 0 l 611 840 b 797 944 650 894 707 944 b 981 840 883 944 940 899 l 1561 0 m 1010 1204 b 832 993 1010 1132 964 993 l 746 993 b 567 1204 614 993 567 1132 l 706 1204 b 783 1078 706 1163 722 1078 l 803 1078 b 872 1204 857 1078 872 1163 "},"ă":{"ha":1576,"x_min":0,"x_max":0,"o":"m 481 0 l 654 239 l 888 239 b 1053 236 943 239 1008 239 b 958 371 1028 269 989 326 l 792 617 l 356 0 l 15 0 l 611 840 b 797 944 650 894 707 944 b 981 840 883 944 940 899 l 1561 0 m 1010 1204 b 832 993 1010 1132 964 993 l 746 993 b 567 1204 614 993 567 1132 l 706 1204 b 783 1078 706 1163 722 1078 l 803 1078 b 872 1204 857 1078 872 1163 "},"Ą":{"ha":1576,"x_min":0,"x_max":0,"o":"m 1561 -347 l 1417 -347 b 1251 -226 1314 -347 1251 -292 b 1321 -104 1251 -186 1272 -143 l 1449 0 l 481 0 l 654 239 l 888 239 b 1053 236 943 239 1008 239 b 958 371 1028 269 989 326 l 792 617 l 356 0 l 15 0 l 611 840 b 797 944 650 894 707 944 b 981 840 883 944 940 899 l 1561 0 l 1410 -122 b 1396 -147 1400 -131 1396 -139 b 1426 -169 1396 -160 1407 -169 l 1561 -169 "},"ą":{"ha":1576,"x_min":0,"x_max":0,"o":"m 1561 -347 l 1417 -347 b 1251 -226 1314 -347 1251 -292 b 1321 -104 1251 -186 1272 -143 l 1449 0 l 481 0 l 654 239 l 888 239 b 1053 236 943 239 1008 239 b 958 371 1028 269 989 326 l 792 617 l 356 0 l 15 0 l 611 840 b 797 944 650 894 707 944 b 981 840 883 944 940 899 l 1561 0 l 1410 -122 b 1396 -147 1400 -131 1396 -139 b 1426 -169 1396 -160 1407 -169 l 1561 -169 "},"Ć":{"ha":1282,"x_min":0,"x_max":0,"o":"m 1269 239 l 1085 0 l 618 0 b 58 474 296 0 58 204 b 618 929 58 746 296 929 l 1269 929 l 1085 688 l 618 688 b 346 461 463 688 346 594 b 618 239 346 329 461 239 m 953 1047 l 539 993 l 539 1108 l 953 1204 "},"ć":{"ha":1282,"x_min":0,"x_max":0,"o":"m 1269 239 l 1085 0 l 618 0 b 58 474 296 0 58 204 b 618 929 58 746 296 929 l 1269 929 l 1085 688 l 618 688 b 346 461 463 688 346 594 b 618 239 346 329 461 239 m 953 1047 l 539 993 l 539 1108 l 953 1204 "},"Ċ":{"ha":1282,"x_min":0,"x_max":0,"o":"m 1269 239 l 1085 0 l 618 0 b 58 474 296 0 58 204 b 618 929 58 746 296 929 l 1269 929 l 1085 688 l 618 688 b 346 461 463 688 346 594 b 618 239 346 329 461 239 m 601 1118 b 719 1222 601 1185 654 1222 b 839 1118 786 1222 839 1185 b 719 1017 839 1054 786 1017 b 601 1118 654 1017 601 1054 "},"ċ":{"ha":1282,"x_min":0,"x_max":0,"o":"m 1269 239 l 1085 0 l 618 0 b 58 474 296 0 58 204 b 618 929 58 746 296 929 l 1269 929 l 1085 688 l 618 688 b 346 461 463 688 346 594 b 618 239 346 329 461 239 m 601 1118 b 719 1222 601 1185 654 1222 b 839 1118 786 1222 839 1185 b 719 1017 839 1054 786 1017 b 601 1118 654 1017 601 1054 "},"Č":{"ha":1282,"x_min":0,"x_max":0,"o":"m 1269 239 l 1085 0 l 618 0 b 58 474 296 0 58 204 b 618 929 58 746 296 929 l 1269 929 l 1085 688 l 618 688 b 346 461 463 688 346 594 b 618 239 346 329 461 239 m 486 1204 l 625 1204 l 703 1064 l 715 1064 l 792 1204 l 929 1204 l 799 993 l 617 993 "},"č":{"ha":1282,"x_min":0,"x_max":0,"o":"m 1269 239 l 1085 0 l 618 0 b 58 474 296 0 58 204 b 618 929 58 746 296 929 l 1269 929 l 1085 688 l 618 688 b 346 461 463 688 346 594 b 618 239 346 329 461 239 m 486 1204 l 625 1204 l 703 1064 l 715 1064 l 792 1204 l 929 1204 l 799 993 l 617 993 "},"Ď":{"ha":1328,"x_min":0,"x_max":0,"o":"m 1269 474 b 710 0 1269 204 1032 0 l 88 0 l 88 579 l 376 579 l 376 239 l 710 239 b 985 461 869 239 985 328 b 710 688 985 592 865 688 l 88 688 l 271 929 l 710 929 b 1269 474 1035 929 1269 742 m 350 1204 l 489 1204 l 567 1064 l 579 1064 l 656 1204 l 793 1204 l 663 993 l 481 993 "},"ď":{"ha":1328,"x_min":0,"x_max":0,"o":"m 1269 474 b 710 0 1269 204 1032 0 l 88 0 l 88 579 l 376 579 l 376 239 l 710 239 b 985 461 869 239 985 328 b 710 688 985 592 865 688 l 88 688 l 271 929 l 710 929 b 1269 474 1035 929 1269 742 m 350 1204 l 489 1204 l 567 1064 l 579 1064 l 656 1204 l 793 1204 l 663 993 l 481 993 "},"Đ":{"ha":1446,"x_min":0,"x_max":0,"o":"m 829 576 l 665 365 l 494 365 l 494 239 l 828 239 b 1103 461 988 239 1103 328 b 828 688 1103 592 983 688 l 207 688 l 389 929 l 828 929 b 1388 474 1153 929 1388 742 b 828 0 1388 204 1150 0 l 207 0 l 207 365 l 0 365 l 164 576 "},"đ":{"ha":1446,"x_min":0,"x_max":0,"o":"m 829 576 l 665 365 l 494 365 l 494 239 l 828 239 b 1103 461 988 239 1103 328 b 828 688 1103 592 983 688 l 207 688 l 389 929 l 828 929 b 1388 474 1153 929 1388 742 b 828 0 1388 204 1150 0 l 207 0 l 207 365 l 0 365 l 164 576 "},"Ē":{"ha":1178,"x_min":0,"x_max":0,"o":"m 1167 239 l 982 0 l 88 0 l 88 929 l 1164 929 l 978 688 l 376 688 l 376 576 l 1113 576 l 947 365 l 376 365 l 376 239 m 794 1042 l 381 1042 l 381 1157 l 794 1157 "},"ē":{"ha":1178,"x_min":0,"x_max":0,"o":"m 1167 239 l 982 0 l 88 0 l 88 929 l 1164 929 l 978 688 l 376 688 l 376 576 l 1113 576 l 947 365 l 376 365 l 376 239 m 794 1042 l 381 1042 l 381 1157 l 794 1157 "},"Ė":{"ha":1178,"x_min":0,"x_max":0,"o":"m 1167 239 l 982 0 l 88 0 l 88 929 l 1164 929 l 978 688 l 376 688 l 376 576 l 1113 576 l 947 365 l 376 365 l 376 239 m 493 1118 b 611 1222 493 1185 546 1222 b 731 1118 678 1222 731 1185 b 611 1017 731 1054 678 1017 b 493 1118 546 1017 493 1054 "},"ė":{"ha":1178,"x_min":0,"x_max":0,"o":"m 1167 239 l 982 0 l 88 0 l 88 929 l 1164 929 l 978 688 l 376 688 l 376 576 l 1113 576 l 947 365 l 376 365 l 376 239 m 493 1118 b 611 1222 493 1185 546 1222 b 731 1118 678 1222 731 1185 b 611 1017 731 1054 678 1017 b 493 1118 546 1017 493 1054 "},"Ę":{"ha":1178,"x_min":0,"x_max":0,"o":"m 1036 -347 l 910 -347 b 744 -226 807 -347 744 -292 b 796 -104 744 -186 757 -153 l 876 0 l 88 0 l 88 929 l 1164 929 l 978 688 l 376 688 l 376 576 l 1113 576 l 947 365 l 376 365 l 376 239 l 1167 239 l 885 -122 b 875 -147 876 -133 875 -135 b 906 -169 875 -160 886 -169 l 1036 -169 "},"ę":{"ha":1178,"x_min":0,"x_max":0,"o":"m 1036 -347 l 910 -347 b 744 -226 807 -347 744 -292 b 796 -104 744 -186 757 -153 l 876 0 l 88 0 l 88 929 l 1164 929 l 978 688 l 376 688 l 376 576 l 1113 576 l 947 365 l 376 365 l 376 239 l 1167 239 l 885 -122 b 875 -147 876 -133 875 -135 b 906 -169 875 -160 886 -169 l 1036 -169 "},"Ě":{"ha":1178,"x_min":0,"x_max":0,"o":"m 1167 239 l 982 0 l 88 0 l 88 929 l 1164 929 l 978 688 l 376 688 l 376 576 l 1113 576 l 947 365 l 376 365 l 376 239 m 379 1204 l 518 1204 l 596 1064 l 608 1064 l 685 1204 l 822 1204 l 692 993 l 510 993 "},"ě":{"ha":1178,"x_min":0,"x_max":0,"o":"m 1167 239 l 982 0 l 88 0 l 88 929 l 1164 929 l 978 688 l 376 688 l 376 576 l 1113 576 l 947 365 l 376 365 l 376 239 m 379 1204 l 518 1204 l 596 1064 l 608 1064 l 685 1204 l 822 1204 l 692 993 l 510 993 "},"Ğ":{"ha":1333,"x_min":0,"x_max":0,"o":"m 661 581 l 1256 581 l 1256 0 l 618 0 b 58 474 296 0 58 204 b 618 929 58 746 296 929 l 1283 929 l 1097 688 l 618 688 b 344 461 463 688 344 593 b 618 239 344 326 458 239 l 969 239 l 969 374 l 489 374 m 929 1204 b 751 993 929 1132 883 993 l 665 993 b 486 1204 533 993 486 1132 l 625 1204 b 703 1078 625 1163 642 1078 l 722 1078 b 792 1204 776 1078 792 1163 "},"ğ":{"ha":1333,"x_min":0,"x_max":0,"o":"m 661 581 l 1256 581 l 1256 0 l 618 0 b 58 474 296 0 58 204 b 618 929 58 746 296 929 l 1283 929 l 1097 688 l 618 688 b 344 461 463 688 344 593 b 618 239 344 326 458 239 l 969 239 l 969 374 l 489 374 m 929 1204 b 751 993 929 1132 883 993 l 665 993 b 486 1204 533 993 486 1132 l 625 1204 b 703 1078 625 1163 642 1078 l 722 1078 b 792 1204 776 1078 792 1163 "},"Ġ":{"ha":1333,"x_min":0,"x_max":0,"o":"m 661 581 l 1256 581 l 1256 0 l 618 0 b 58 474 296 0 58 204 b 618 929 58 746 296 929 l 1283 929 l 1097 688 l 618 688 b 344 461 463 688 344 593 b 618 239 344 326 458 239 l 969 239 l 969 374 l 489 374 m 601 1118 b 719 1222 601 1185 654 1222 b 839 1118 786 1222 839 1185 b 719 1017 839 1054 786 1017 b 601 1118 654 1017 601 1054 "},"ġ":{"ha":1333,"x_min":0,"x_max":0,"o":"m 661 581 l 1256 581 l 1256 0 l 618 0 b 58 474 296 0 58 204 b 618 929 58 746 296 929 l 1283 929 l 1097 688 l 618 688 b 344 461 463 688 344 593 b 618 239 344 326 458 239 l 969 239 l 969 374 l 489 374 m 601 1118 b 719 1222 601 1185 654 1222 b 839 1118 786 1222 839 1185 b 719 1017 839 1054 786 1017 b 601 1118 654 1017 601 1054 "},"Ģ":{"ha":1333,"x_min":0,"x_max":0,"o":"m 661 581 l 1256 581 l 1256 0 l 618 0 b 58 474 296 0 58 204 b 618 929 58 746 296 929 l 1283 929 l 1097 688 l 618 688 b 344 461 463 688 344 593 b 618 239 344 326 458 239 l 969 239 l 969 374 l 489 374 m 865 -43 l 750 -354 l 650 -354 l 650 -43 "},"ģ":{"ha":1333,"x_min":0,"x_max":0,"o":"m 661 581 l 1256 581 l 1256 0 l 618 0 b 58 474 296 0 58 204 b 618 929 58 746 296 929 l 1283 929 l 1097 688 l 618 688 b 344 461 463 688 344 593 b 618 239 344 326 458 239 l 969 239 l 969 374 l 489 374 m 865 -43 l 750 -354 l 650 -354 l 650 -43 "},"Ħ":{"ha":1304,"x_min":0,"x_max":0,"o":"m 1215 0 l 929 0 l 929 358 l 376 358 l 376 0 l 88 0 l 88 929 l 376 929 l 376 828 l 929 828 l 929 929 l 1215 929 m 929 600 l 929 728 l 376 728 l 376 600 "},"ħ":{"ha":1304,"x_min":0,"x_max":0,"o":"m 1215 0 l 929 0 l 929 358 l 376 358 l 376 0 l 88 0 l 88 929 l 376 929 l 376 828 l 929 828 l 929 929 l 1215 929 m 929 600 l 929 728 l 376 728 l 376 600 "},"Ī":{"ha":471,"x_min":0,"x_max":0,"o":"m 379 0 l 92 0 l 92 929 l 379 929 m 443 1042 l 29 1042 l 29 1157 l 443 1157 "},"ī":{"ha":471,"x_min":0,"x_max":0,"o":"m 379 0 l 92 0 l 92 929 l 379 929 m 443 1042 l 29 1042 l 29 1157 l 443 1157 "},"Ĭ":{"ha":471,"x_min":0,"x_max":0,"o":"m 379 0 l 92 0 l 92 929 l 379 929 m 457 1204 b 279 993 457 1132 411 993 l 193 993 b 14 1204 61 993 14 1132 l 153 1204 b 231 1078 153 1163 169 1078 l 250 1078 b 319 1204 304 1078 319 1163 "},"ĭ":{"ha":471,"x_min":0,"x_max":0,"o":"m 379 0 l 92 0 l 92 929 l 379 929 m 457 1204 b 279 993 457 1132 411 993 l 193 993 b 14 1204 61 993 14 1132 l 153 1204 b 231 1078 153 1163 169 1078 l 250 1078 b 319 1204 304 1078 319 1163 "},"Į":{"ha":471,"x_min":0,"x_max":0,"o":"m 379 -347 l 233 -347 b 68 -226 132 -347 68 -292 b 138 -104 68 -186 89 -143 l 265 0 l 92 0 l 92 929 l 379 929 l 379 0 l 228 -122 b 213 -147 217 -131 213 -139 b 243 -169 213 -160 224 -169 l 379 -169 "},"į":{"ha":471,"x_min":0,"x_max":0,"o":"m 379 -347 l 233 -347 b 68 -226 132 -347 68 -292 b 138 -104 68 -186 89 -143 l 265 0 l 92 0 l 92 929 l 379 929 l 379 0 l 228 -122 b 213 -147 217 -131 213 -139 b 243 -169 213 -160 224 -169 l 379 -169 "},"İ":{"ha":471,"x_min":0,"x_max":0,"o":"m 379 0 l 92 0 l 92 929 l 379 929 m 118 1118 b 236 1222 118 1185 171 1222 b 356 1118 303 1222 356 1185 b 236 1017 356 1054 303 1017 b 118 1118 171 1017 118 1054 "},"ı":{"ha":471,"x_min":0,"x_max":0,"o":"m 379 0 l 92 0 l 92 929 l 379 929 "},"Ĳ":{"ha":1488,"x_min":0,"x_max":0,"o":"m 379 0 l 92 0 l 92 929 l 379 929 m 833 239 b 1125 422 1053 239 1125 289 l 1125 929 l 1414 929 l 1414 422 b 833 0 1414 140 1219 0 l 486 0 l 674 239 "},"ĳ":{"ha":1488,"x_min":0,"x_max":0,"o":"m 379 0 l 92 0 l 92 929 l 379 929 m 833 239 b 1125 422 1053 239 1125 289 l 1125 929 l 1414 929 l 1414 422 b 833 0 1414 140 1219 0 l 486 0 l 674 239 "},"Ķ":{"ha":1267,"x_min":0,"x_max":0,"o":"m 1260 0 l 825 0 l 544 244 b 372 400 449 328 404 368 b 376 267 374 357 376 311 l 376 0 l 88 0 l 88 929 l 376 929 l 376 714 b 371 551 376 657 374 600 b 542 703 407 585 457 632 l 810 929 l 1226 929 l 871 663 b 631 492 747 569 690 528 b 875 307 683 456 756 404 m 700 -43 l 585 -354 l 485 -354 l 485 -43 "},"ķ":{"ha":1267,"x_min":0,"x_max":0,"o":"m 1260 0 l 825 0 l 544 244 b 372 400 449 328 404 368 b 376 267 374 357 376 311 l 376 0 l 88 0 l 88 929 l 376 929 l 376 714 b 371 551 376 657 374 600 b 542 703 407 585 457 632 l 810 929 l 1226 929 l 871 663 b 631 492 747 569 690 528 b 875 307 683 456 756 404 m 700 -43 l 585 -354 l 485 -354 l 485 -43 "},"Ĺ":{"ha":1103,"x_min":0,"x_max":0,"o":"m 1094 239 l 908 0 l 88 0 l 88 929 l 375 929 l 375 239 m 507 1047 l 93 993 l 93 1108 l 507 1204 "},"ĺ":{"ha":1103,"x_min":0,"x_max":0,"o":"m 1094 239 l 908 0 l 88 0 l 88 929 l 375 929 l 375 239 m 507 1047 l 93 993 l 93 1108 l 507 1204 "},"Ļ":{"ha":1103,"x_min":0,"x_max":0,"o":"m 1094 239 l 908 0 l 88 0 l 88 929 l 375 929 l 375 239 m 593 -43 l 478 -354 l 378 -354 l 378 -43 "},"ļ":{"ha":1103,"x_min":0,"x_max":0,"o":"m 1094 239 l 908 0 l 88 0 l 88 929 l 375 929 l 375 239 m 593 -43 l 478 -354 l 378 -354 l 378 -43 "},"Ľ":{"ha":1103,"x_min":0,"x_max":0,"o":"m 1094 239 l 908 0 l 88 0 l 88 929 l 375 929 l 375 239 m 832 929 l 694 557 l 575 557 l 575 929 "},"ľ":{"ha":1103,"x_min":0,"x_max":0,"o":"m 1094 239 l 908 0 l 88 0 l 88 929 l 375 929 l 375 239 m 832 929 l 694 557 l 575 557 l 575 929 "},"Ł":{"ha":1103,"x_min":0,"x_max":0,"o":"m 1094 239 l 908 0 l 88 0 l 88 929 l 375 929 l 375 606 l 829 606 l 665 396 l 375 396 l 375 239 "},"ł":{"ha":1103,"x_min":0,"x_max":0,"o":"m 1094 239 l 908 0 l 88 0 l 88 929 l 375 929 l 375 606 l 829 606 l 665 396 l 375 396 l 375 239 "},"Ń":{"ha":1269,"x_min":0,"x_max":0,"o":"m 1029 -15 b 914 35 993 -15 958 -7 l 344 546 l 344 0 l 83 0 l 83 771 b 240 944 83 894 158 944 b 356 894 275 944 310 936 l 925 383 l 925 929 l 1188 929 l 1188 160 b 1029 -15 1188 36 1113 -15 m 854 1047 l 440 993 l 440 1108 l 854 1204 "},"ń":{"ha":1269,"x_min":0,"x_max":0,"o":"m 1029 -15 b 914 35 993 -15 958 -7 l 344 546 l 344 0 l 83 0 l 83 771 b 240 944 83 894 158 944 b 356 894 275 944 310 936 l 925 383 l 925 929 l 1188 929 l 1188 160 b 1029 -15 1188 36 1113 -15 m 854 1047 l 440 993 l 440 1108 l 854 1204 "},"Ņ":{"ha":1269,"x_min":0,"x_max":0,"o":"m 1029 -15 b 914 35 993 -15 958 -7 l 344 546 l 344 0 l 83 0 l 83 771 b 240 944 83 894 158 944 b 356 894 275 944 310 936 l 925 383 l 925 929 l 1188 929 l 1188 160 b 1029 -15 1188 36 1113 -15 m 703 -43 l 588 -354 l 488 -354 l 488 -43 "},"ņ":{"ha":1269,"x_min":0,"x_max":0,"o":"m 1029 -15 b 914 35 993 -15 958 -7 l 344 546 l 344 0 l 83 0 l 83 771 b 240 944 83 894 158 944 b 356 894 275 944 310 936 l 925 383 l 925 929 l 1188 929 l 1188 160 b 1029 -15 1188 36 1113 -15 m 703 -43 l 588 -354 l 488 -354 l 488 -43 "},"Ň":{"ha":1269,"x_min":0,"x_max":0,"o":"m 1029 -15 b 914 35 993 -15 958 -7 l 344 546 l 344 0 l 83 0 l 83 771 b 240 944 83 894 158 944 b 356 894 275 944 310 936 l 925 383 l 925 929 l 1188 929 l 1188 160 b 1029 -15 1188 36 1113 -15 m 413 1204 l 551 1204 l 629 1064 l 642 1064 l 718 1204 l 856 1204 l 725 993 l 543 993 "},"ň":{"ha":1269,"x_min":0,"x_max":0,"o":"m 1029 -15 b 914 35 993 -15 958 -7 l 344 546 l 344 0 l 83 0 l 83 771 b 240 944 83 894 158 944 b 356 894 275 944 310 936 l 925 383 l 925 929 l 1188 929 l 1188 160 b 1029 -15 1188 36 1113 -15 m 413 1204 l 551 1204 l 629 1064 l 642 1064 l 718 1204 l 856 1204 l 725 993 l 543 993 "},"Ŋ":{"ha":1269,"x_min":0,"x_max":0,"o":"m 607 -114 b 921 26 801 -114 901 -75 l 344 546 l 344 0 l 83 0 l 83 771 b 240 944 83 894 158 944 b 356 894 275 944 310 936 l 925 383 l 925 929 l 1188 929 l 1188 68 b 607 -354 1188 -212 993 -354 l 396 -354 l 582 -114 "},"ŋ":{"ha":1269,"x_min":0,"x_max":0,"o":"m 607 -114 b 921 26 801 -114 901 -75 l 344 546 l 344 0 l 83 0 l 83 771 b 240 944 83 894 158 944 b 356 894 275 944 310 936 l 925 383 l 925 929 l 1188 929 l 1188 68 b 607 -354 1188 -212 993 -354 l 396 -354 l 582 -114 "},"Ō":{"ha":1475,"x_min":0,"x_max":0,"o":"m 738 944 b 1417 465 1189 944 1417 797 b 738 -15 1417 133 1189 -15 b 58 465 285 -15 58 133 b 738 944 58 797 285 944 m 738 226 b 1131 465 1026 226 1131 265 b 738 703 1131 665 1026 703 b 344 465 449 703 344 665 b 738 226 344 265 449 226 m 943 1042 l 529 1042 l 529 1157 l 943 1157 "},"ō":{"ha":1475,"x_min":0,"x_max":0,"o":"m 738 944 b 1417 465 1189 944 1417 797 b 738 -15 1417 133 1189 -15 b 58 465 285 -15 58 133 b 738 944 58 797 285 944 m 738 226 b 1131 465 1026 226 1131 265 b 738 703 1131 665 1026 703 b 344 465 449 703 344 665 b 738 226 344 265 449 226 m 943 1042 l 529 1042 l 529 1157 l 943 1157 "},"Ő":{"ha":1475,"x_min":0,"x_max":0,"o":"m 738 944 b 1417 465 1189 944 1417 797 b 738 -15 1417 133 1189 -15 b 58 465 285 -15 58 133 b 738 944 58 797 285 944 m 738 226 b 1131 465 1026 226 1131 265 b 738 703 1131 665 1026 703 b 344 465 449 703 344 665 b 738 226 344 265 449 226 m 871 1007 l 765 1007 l 835 1204 l 1008 1204 m 617 1007 l 513 1007 l 581 1204 l 756 1204 "},"ő":{"ha":1475,"x_min":0,"x_max":0,"o":"m 738 944 b 1417 465 1189 944 1417 797 b 738 -15 1417 133 1189 -15 b 58 465 285 -15 58 133 b 738 944 58 797 285 944 m 738 226 b 1131 465 1026 226 1131 265 b 738 703 1131 665 1026 703 b 344 465 449 703 344 665 b 738 226 344 265 449 226 m 871 1007 l 765 1007 l 835 1204 l 1008 1204 m 617 1007 l 513 1007 l 581 1204 l 756 1204 "},"Œ":{"ha":2092,"x_min":0,"x_max":0,"o":"m 2081 239 l 1896 0 l 1001 0 b 738 -15 936 -10 846 -15 b 58 465 285 -15 58 133 b 738 944 58 797 285 944 b 1001 929 846 944 936 939 l 2076 929 l 1892 688 l 1289 688 l 1289 576 l 2025 576 l 1861 365 l 1289 365 l 1289 239 m 738 226 b 1001 253 853 226 940 233 l 1001 676 b 738 703 940 697 853 703 b 344 465 449 703 344 665 b 738 226 344 265 449 226 "},"œ":{"ha":2092,"x_min":0,"x_max":0,"o":"m 2081 239 l 1896 0 l 1001 0 b 738 -15 936 -10 846 -15 b 58 465 285 -15 58 133 b 738 944 58 797 285 944 b 1001 929 846 944 936 939 l 2076 929 l 1892 688 l 1289 688 l 1289 576 l 2025 576 l 1861 365 l 1289 365 l 1289 239 m 738 226 b 1001 253 853 226 940 233 l 1001 676 b 738 703 940 697 853 703 b 344 465 449 703 344 665 b 738 226 344 265 449 226 "},"Ŕ":{"ha":1421,"x_min":0,"x_max":0,"o":"m 1406 0 l 1021 0 l 814 246 l 372 246 l 372 0 l 85 0 l 85 475 l 893 475 b 1051 579 982 475 1051 515 b 893 688 1051 651 992 688 l 85 688 l 272 929 l 869 929 b 1347 597 1081 929 1347 863 b 1104 303 1347 453 1257 333 b 1235 181 1136 279 1171 246 m 918 1047 l 504 993 l 504 1108 l 918 1204 "},"ŕ":{"ha":1421,"x_min":0,"x_max":0,"o":"m 1406 0 l 1021 0 l 814 246 l 372 246 l 372 0 l 85 0 l 85 475 l 893 475 b 1051 579 982 475 1051 515 b 893 688 1051 651 992 688 l 85 688 l 272 929 l 869 929 b 1347 597 1081 929 1347 863 b 1104 303 1347 453 1257 333 b 1235 181 1136 279 1171 246 m 918 1047 l 504 993 l 504 1108 l 918 1204 "},"Ŗ":{"ha":1421,"x_min":0,"x_max":0,"o":"m 1406 0 l 1021 0 l 814 246 l 372 246 l 372 0 l 85 0 l 85 475 l 893 475 b 1051 579 982 475 1051 515 b 893 688 1051 651 992 688 l 85 688 l 272 929 l 869 929 b 1347 597 1081 929 1347 863 b 1104 303 1347 453 1257 333 b 1235 181 1136 279 1171 246 m 792 -43 l 676 -354 l 576 -354 l 576 -43 "},"ŗ":{"ha":1421,"x_min":0,"x_max":0,"o":"m 1406 0 l 1021 0 l 814 246 l 372 246 l 372 0 l 85 0 l 85 475 l 893 475 b 1051 579 982 475 1051 515 b 893 688 1051 651 992 688 l 85 688 l 272 929 l 869 929 b 1347 597 1081 929 1347 863 b 1104 303 1347 453 1257 333 b 1235 181 1136 279 1171 246 m 792 -43 l 676 -354 l 576 -354 l 576 -43 "},"Ř":{"ha":1421,"x_min":0,"x_max":0,"o":"m 1406 0 l 1021 0 l 814 246 l 372 246 l 372 0 l 85 0 l 85 475 l 893 475 b 1051 579 982 475 1051 515 b 893 688 1051 651 992 688 l 85 688 l 272 929 l 869 929 b 1347 597 1081 929 1347 863 b 1104 303 1347 453 1257 333 b 1235 181 1136 279 1171 246 m 449 1204 l 588 1204 l 665 1064 l 678 1064 l 754 1204 l 892 1204 l 761 993 l 579 993 "},"ř":{"ha":1421,"x_min":0,"x_max":0,"o":"m 1406 0 l 1021 0 l 814 246 l 372 246 l 372 0 l 85 0 l 85 475 l 893 475 b 1051 579 982 475 1051 515 b 893 688 1051 651 992 688 l 85 688 l 272 929 l 869 929 b 1347 597 1081 929 1347 863 b 1104 303 1347 453 1257 333 b 1235 181 1136 279 1171 246 m 449 1204 l 588 1204 l 665 1064 l 678 1064 l 754 1204 l 892 1204 l 761 993 l 579 993 "},"Ś":{"ha":1338,"x_min":0,"x_max":0,"o":"m 949 558 b 1297 304 1175 558 1297 474 b 899 0 1297 114 1182 0 l 33 0 l 218 239 l 921 239 b 1019 307 989 239 1019 258 b 921 374 1019 354 989 374 l 415 374 b 67 640 176 374 67 481 b 465 929 67 815 183 929 l 1272 929 l 1088 688 l 443 688 b 344 624 376 688 344 671 b 443 558 344 576 376 558 m 901 1047 l 488 993 l 488 1108 l 901 1204 "},"ś":{"ha":1338,"x_min":0,"x_max":0,"o":"m 949 558 b 1297 304 1175 558 1297 474 b 899 0 1297 114 1182 0 l 33 0 l 218 239 l 921 239 b 1019 307 989 239 1019 258 b 921 374 1019 354 989 374 l 415 374 b 67 640 176 374 67 481 b 465 929 67 815 183 929 l 1272 929 l 1088 688 l 443 688 b 344 624 376 688 344 671 b 443 558 344 576 376 558 m 901 1047 l 488 993 l 488 1108 l 901 1204 "},"Ş":{"ha":1338,"x_min":0,"x_max":0,"o":"m 949 558 b 1297 304 1175 558 1297 474 b 899 0 1297 114 1182 0 l 33 0 l 218 239 l 921 239 b 1019 307 989 239 1019 258 b 921 374 1019 354 989 374 l 415 374 b 67 640 176 374 67 481 b 465 929 67 815 183 929 l 1272 929 l 1088 688 l 443 688 b 344 624 376 688 344 671 b 443 558 344 576 376 558 m 775 -43 l 661 -354 l 561 -354 l 561 -43 "},"ş":{"ha":1338,"x_min":0,"x_max":0,"o":"m 949 558 b 1297 304 1175 558 1297 474 b 899 0 1297 114 1182 0 l 33 0 l 218 239 l 921 239 b 1019 307 989 239 1019 258 b 921 374 1019 354 989 374 l 415 374 b 67 640 176 374 67 481 b 465 929 67 815 183 929 l 1272 929 l 1088 688 l 443 688 b 344 624 376 688 344 671 b 443 558 344 576 376 558 m 775 -43 l 661 -354 l 561 -354 l 561 -43 "},"Š":{"ha":1338,"x_min":0,"x_max":0,"o":"m 949 558 b 1297 304 1175 558 1297 474 b 899 0 1297 114 1182 0 l 33 0 l 218 239 l 921 239 b 1019 307 989 239 1019 258 b 921 374 1019 354 989 374 l 415 374 b 67 640 176 374 67 481 b 465 929 67 815 183 929 l 1272 929 l 1088 688 l 443 688 b 344 624 376 688 344 671 b 443 558 344 576 376 558 m 453 1204 l 592 1204 l 669 1064 l 682 1064 l 758 1204 l 896 1204 l 765 993 l 583 993 "},"š":{"ha":1338,"x_min":0,"x_max":0,"o":"m 949 558 b 1297 304 1175 558 1297 474 b 899 0 1297 114 1182 0 l 33 0 l 218 239 l 921 239 b 1019 307 989 239 1019 258 b 921 374 1019 354 989 374 l 415 374 b 67 640 176 374 67 481 b 465 929 67 815 183 929 l 1272 929 l 1088 688 l 443 688 b 344 624 376 688 344 671 b 443 558 344 576 376 558 m 453 1204 l 592 1204 l 669 1064 l 682 1064 l 758 1204 l 896 1204 l 765 993 l 583 993 "},"Ť":{"ha":1242,"x_min":0,"x_max":0,"o":"m 1242 929 l 1056 688 l 724 688 l 724 0 l 436 0 l 436 688 l 0 688 l 186 929 m 360 1204 l 499 1204 l 576 1064 l 589 1064 l 665 1204 l 803 1204 l 672 993 l 490 993 "},"ť":{"ha":1242,"x_min":0,"x_max":0,"o":"m 1242 929 l 1056 688 l 724 688 l 724 0 l 436 0 l 436 688 l 0 688 l 186 929 m 360 1204 l 499 1204 l 576 1064 l 589 1064 l 665 1204 l 803 1204 l 672 993 l 490 993 "},"Ŧ":{"ha":1242,"x_min":0,"x_max":0,"o":"m 436 560 l 436 688 l 0 688 l 186 929 l 1242 929 l 1056 688 l 724 688 l 724 560 l 956 560 l 815 381 l 724 381 l 724 0 l 436 0 l 436 381 l 214 381 l 356 560 "},"ŧ":{"ha":1242,"x_min":0,"x_max":0,"o":"m 436 560 l 436 688 l 0 688 l 186 929 l 1242 929 l 1056 688 l 724 688 l 724 560 l 956 560 l 815 381 l 724 381 l 724 0 l 436 0 l 436 381 l 214 381 l 356 560 "},"Ũ":{"ha":1369,"x_min":0,"x_max":0,"o":"m 1294 406 b 715 -15 1294 125 1101 -15 b 75 406 268 -15 75 125 l 75 929 l 361 929 l 361 406 b 715 224 361 268 419 224 b 1006 406 936 224 1006 275 l 1006 929 l 1294 929 m 785 1017 b 583 1074 714 1017 656 1074 b 476 1024 540 1074 500 1051 l 476 1139 b 583 1181 503 1168 542 1181 b 785 1122 656 1181 713 1122 b 890 1172 828 1122 867 1144 l 890 1058 b 785 1017 864 1028 826 1017 "},"ũ":{"ha":1369,"x_min":0,"x_max":0,"o":"m 1294 406 b 715 -15 1294 125 1101 -15 b 75 406 268 -15 75 125 l 75 929 l 361 929 l 361 406 b 715 224 361 268 419 224 b 1006 406 936 224 1006 275 l 1006 929 l 1294 929 m 785 1017 b 583 1074 714 1017 656 1074 b 476 1024 540 1074 500 1051 l 476 1139 b 583 1181 503 1168 542 1181 b 785 1122 656 1181 713 1122 b 890 1172 828 1122 867 1144 l 890 1058 b 785 1017 864 1028 826 1017 "},"Ū":{"ha":1369,"x_min":0,"x_max":0,"o":"m 1294 406 b 715 -15 1294 125 1101 -15 b 75 406 268 -15 75 125 l 75 929 l 361 929 l 361 406 b 715 224 361 268 419 224 b 1006 406 936 224 1006 275 l 1006 929 l 1294 929 m 890 1042 l 476 1042 l 476 1157 l 890 1157 "},"ū":{"ha":1369,"x_min":0,"x_max":0,"o":"m 1294 406 b 715 -15 1294 125 1101 -15 b 75 406 268 -15 75 125 l 75 929 l 361 929 l 361 406 b 715 224 361 268 419 224 b 1006 406 936 224 1006 275 l 1006 929 l 1294 929 m 890 1042 l 476 1042 l 476 1157 l 890 1157 "},"Ŭ":{"ha":1369,"x_min":0,"x_max":0,"o":"m 1294 406 b 715 -15 1294 125 1101 -15 b 75 406 268 -15 75 125 l 75 929 l 361 929 l 361 406 b 715 224 361 268 419 224 b 1006 406 936 224 1006 275 l 1006 929 l 1294 929 m 906 1204 b 728 993 906 1132 860 993 l 642 993 b 463 1204 510 993 463 1132 l 601 1204 b 679 1078 601 1163 618 1078 l 699 1078 b 768 1204 753 1078 768 1163 "},"ŭ":{"ha":1369,"x_min":0,"x_max":0,"o":"m 1294 406 b 715 -15 1294 125 1101 -15 b 75 406 268 -15 75 125 l 75 929 l 361 929 l 361 406 b 715 224 361 268 419 224 b 1006 406 936 224 1006 275 l 1006 929 l 1294 929 m 906 1204 b 728 993 906 1132 860 993 l 642 993 b 463 1204 510 993 463 1132 l 601 1204 b 679 1078 601 1163 618 1078 l 699 1078 b 768 1204 753 1078 768 1163 "},"Ů":{"ha":1369,"x_min":0,"x_max":0,"o":"m 1294 406 b 715 -15 1294 125 1101 -15 b 75 406 268 -15 75 125 l 75 929 l 361 929 l 361 406 b 715 224 361 268 419 224 b 1006 406 936 224 1006 275 l 1006 929 l 1294 929 m 618 1213 b 592 1188 601 1213 592 1203 l 592 1117 b 618 1092 592 1100 601 1092 l 749 1092 b 776 1117 768 1092 776 1100 l 776 1188 b 749 1213 776 1204 768 1213 m 885 1108 b 740 993 885 1031 836 993 l 626 993 b 483 1108 531 993 483 1031 l 483 1196 b 626 1313 483 1274 531 1313 l 740 1313 b 885 1196 836 1313 885 1274 "},"ů":{"ha":1369,"x_min":0,"x_max":0,"o":"m 1294 406 b 715 -15 1294 125 1101 -15 b 75 406 268 -15 75 125 l 75 929 l 361 929 l 361 406 b 715 224 361 268 419 224 b 1006 406 936 224 1006 275 l 1006 929 l 1294 929 m 618 1213 b 592 1188 601 1213 592 1203 l 592 1117 b 618 1092 592 1100 601 1092 l 749 1092 b 776 1117 768 1092 776 1100 l 776 1188 b 749 1213 776 1204 768 1213 m 885 1108 b 740 993 885 1031 836 993 l 626 993 b 483 1108 531 993 483 1031 l 483 1196 b 626 1313 483 1274 531 1313 l 740 1313 b 885 1196 836 1313 885 1274 "},"Ű":{"ha":1369,"x_min":0,"x_max":0,"o":"m 1294 406 b 715 -15 1294 125 1101 -15 b 75 406 268 -15 75 125 l 75 929 l 361 929 l 361 406 b 715 224 361 268 419 224 b 1006 406 936 224 1006 275 l 1006 929 l 1294 929 m 844 1007 l 739 1007 l 808 1204 l 982 1204 m 590 1007 l 486 1007 l 554 1204 l 729 1204 "},"ű":{"ha":1369,"x_min":0,"x_max":0,"o":"m 1294 406 b 715 -15 1294 125 1101 -15 b 75 406 268 -15 75 125 l 75 929 l 361 929 l 361 406 b 715 224 361 268 419 224 b 1006 406 936 224 1006 275 l 1006 929 l 1294 929 m 844 1007 l 739 1007 l 808 1204 l 982 1204 m 590 1007 l 486 1007 l 554 1204 l 729 1204 "},"Ų":{"ha":1369,"x_min":0,"x_max":0,"o":"m 913 -347 l 768 -347 b 601 -226 665 -347 601 -292 b 672 -104 601 -186 624 -143 l 782 -12 b 715 -15 760 -14 738 -15 b 75 406 268 -15 75 125 l 75 929 l 361 929 l 361 406 b 715 224 361 268 419 224 b 1006 406 936 224 1006 275 l 1006 929 l 1294 929 l 1294 406 b 911 0 1294 178 1165 42 l 761 -122 b 747 -147 750 -131 747 -139 b 776 -169 747 -160 757 -169 l 913 -169 "},"ų":{"ha":1369,"x_min":0,"x_max":0,"o":"m 913 -347 l 768 -347 b 601 -226 665 -347 601 -292 b 672 -104 601 -186 624 -143 l 782 -12 b 715 -15 760 -14 738 -15 b 75 406 268 -15 75 125 l 75 929 l 361 929 l 361 406 b 715 224 361 268 419 224 b 1006 406 936 224 1006 275 l 1006 929 l 1294 929 l 1294 406 b 911 0 1294 178 1165 42 l 761 -122 b 747 -147 750 -131 747 -139 b 776 -169 747 -160 757 -169 l 913 -169 "},"Ŵ":{"ha":1750,"x_min":0,"x_max":0,"o":"m 1019 346 b 869 625 939 489 901 558 b 722 347 840 558 803 490 l 574 83 b 415 -15 540 24 490 -15 b 254 113 343 -15 279 26 l 18 929 l 306 929 l 393 606 b 456 350 422 501 442 425 b 586 607 486 415 522 486 l 711 840 b 875 944 760 932 807 944 b 1042 840 944 944 993 932 l 1165 606 b 1296 350 1235 478 1267 413 b 1360 606 1311 424 1332 503 l 1447 929 l 1728 929 l 1488 113 b 1326 -15 1463 26 1399 -15 b 1168 83 1253 -15 1203 22 m 1096 993 l 958 993 l 881 1133 l 868 1133 l 792 993 l 653 993 l 785 1204 l 967 1204 "},"ŵ":{"ha":1750,"x_min":0,"x_max":0,"o":"m 1019 346 b 869 625 939 489 901 558 b 722 347 840 558 803 490 l 574 83 b 415 -15 540 24 490 -15 b 254 113 343 -15 279 26 l 18 929 l 306 929 l 393 606 b 456 350 422 501 442 425 b 586 607 486 415 522 486 l 711 840 b 875 944 760 932 807 944 b 1042 840 944 944 993 932 l 1165 606 b 1296 350 1235 478 1267 413 b 1360 606 1311 424 1332 503 l 1447 929 l 1728 929 l 1488 113 b 1326 -15 1463 26 1399 -15 b 1168 83 1253 -15 1203 22 m 1096 993 l 958 993 l 881 1133 l 868 1133 l 792 993 l 653 993 l 785 1204 l 967 1204 "},"Ŷ":{"ha":1428,"x_min":0,"x_max":0,"o":"m 1418 929 l 867 307 l 867 0 l 578 0 l 578 308 l 11 929 l 381 929 l 603 671 b 729 525 632 638 710 553 b 846 672 747 551 779 592 l 1057 929 m 956 993 l 818 993 l 740 1133 l 728 1133 l 651 993 l 513 993 l 644 1204 l 826 1204 "},"ŷ":{"ha":1428,"x_min":0,"x_max":0,"o":"m 1418 929 l 867 307 l 867 0 l 578 0 l 578 308 l 11 929 l 381 929 l 603 671 b 729 525 632 638 710 553 b 846 672 747 551 779 592 l 1057 929 m 956 993 l 818 993 l 740 1133 l 728 1133 l 651 993 l 513 993 l 644 1204 l 826 1204 "},"Ÿ":{"ha":1428,"x_min":0,"x_max":0,"o":"m 1418 929 l 867 307 l 867 0 l 578 0 l 578 308 l 11 929 l 381 929 l 603 671 b 729 525 632 638 710 553 b 846 672 747 551 779 592 l 1057 929 m 465 1118 b 583 1222 465 1185 518 1222 b 703 1118 650 1222 703 1185 b 583 1017 703 1054 650 1017 b 465 1118 518 1017 465 1054 m 754 1118 b 872 1222 754 1185 808 1222 b 992 1118 939 1222 992 1185 b 872 1017 992 1054 939 1017 b 754 1118 808 1017 754 1054 "},"Ź":{"ha":1249,"x_min":0,"x_max":0,"o":"m 1064 0 l 183 0 b 50 117 111 0 50 42 b 113 232 50 160 74 201 l 451 499 b 707 693 606 622 672 668 b 388 688 657 689 572 688 l 15 688 l 199 929 l 1056 929 b 1189 813 1128 929 1189 888 b 1126 699 1189 771 1165 728 l 783 426 b 531 233 631 306 567 258 b 900 239 576 236 754 239 l 1238 239 m 831 1047 l 417 993 l 417 1108 l 831 1204 "},"ź":{"ha":1249,"x_min":0,"x_max":0,"o":"m 1064 0 l 183 0 b 50 117 111 0 50 42 b 113 232 50 160 74 201 l 451 499 b 707 693 606 622 672 668 b 388 688 657 689 572 688 l 15 688 l 199 929 l 1056 929 b 1189 813 1128 929 1189 888 b 1126 699 1189 771 1165 728 l 783 426 b 531 233 631 306 567 258 b 900 239 576 236 754 239 l 1238 239 m 831 1047 l 417 993 l 417 1108 l 831 1204 "},"Ż":{"ha":1249,"x_min":0,"x_max":0,"o":"m 1064 0 l 183 0 b 50 117 111 0 50 42 b 113 232 50 160 74 201 l 451 499 b 707 693 606 622 672 668 b 388 688 657 689 572 688 l 15 688 l 199 929 l 1056 929 b 1189 813 1128 929 1189 888 b 1126 699 1189 771 1165 728 l 783 426 b 531 233 631 306 567 258 b 900 239 576 236 754 239 l 1238 239 m 535 1118 b 653 1222 535 1185 588 1222 b 772 1118 719 1222 772 1185 b 653 1017 772 1054 719 1017 b 535 1118 588 1017 535 1054 "},"ż":{"ha":1249,"x_min":0,"x_max":0,"o":"m 1064 0 l 183 0 b 50 117 111 0 50 42 b 113 232 50 160 74 201 l 451 499 b 707 693 606 622 672 668 b 388 688 657 689 572 688 l 15 688 l 199 929 l 1056 929 b 1189 813 1128 929 1189 888 b 1126 699 1189 771 1165 728 l 783 426 b 531 233 631 306 567 258 b 900 239 576 236 754 239 l 1238 239 m 535 1118 b 653 1222 535 1185 588 1222 b 772 1118 719 1222 772 1185 b 653 1017 772 1054 719 1017 b 535 1118 588 1017 535 1054 "},"Ž":{"ha":1249,"x_min":0,"x_max":0,"o":"m 1064 0 l 183 0 b 50 117 111 0 50 42 b 113 232 50 160 74 201 l 451 499 b 707 693 606 622 672 668 b 388 688 657 689 572 688 l 15 688 l 199 929 l 1056 929 b 1189 813 1128 929 1189 888 b 1126 699 1189 771 1165 728 l 783 426 b 531 233 631 306 567 258 b 900 239 576 236 754 239 l 1238 239 m 415 1204 l 554 1204 l 632 1064 l 644 1064 l 721 1204 l 858 1204 l 728 993 l 546 993 "},"ž":{"ha":1249,"x_min":0,"x_max":0,"o":"m 1064 0 l 183 0 b 50 117 111 0 50 42 b 113 232 50 160 74 201 l 451 499 b 707 693 606 622 672 668 b 388 688 657 689 572 688 l 15 688 l 199 929 l 1056 929 b 1189 813 1128 929 1189 888 b 1126 699 1189 771 1165 728 l 783 426 b 531 233 631 306 567 258 b 900 239 576 236 754 239 l 1238 239 m 415 1204 l 554 1204 l 632 1064 l 644 1064 l 721 1204 l 858 1204 l 728 993 l 546 993 "},"Ș":{"ha":1338,"x_min":0,"x_max":0,"o":"m 949 558 b 1297 304 1175 558 1297 474 b 899 0 1297 114 1182 0 l 33 0 l 218 239 l 921 239 b 1019 307 989 239 1019 258 b 921 374 1019 354 989 374 l 415 374 b 67 640 176 374 67 481 b 465 929 67 815 183 929 l 1272 929 l 1088 688 l 443 688 b 344 624 376 688 344 671 b 443 558 344 576 376 558 m 776 -43 l 661 -354 l 561 -354 l 561 -43 "},"ș":{"ha":1338,"x_min":0,"x_max":0,"o":"m 949 558 b 1297 304 1175 558 1297 474 b 899 0 1297 114 1182 0 l 33 0 l 218 239 l 921 239 b 1019 307 989 239 1019 258 b 921 374 1019 354 989 374 l 415 374 b 67 640 176 374 67 481 b 465 929 67 815 183 929 l 1272 929 l 1088 688 l 443 688 b 344 624 376 688 344 671 b 443 558 344 576 376 558 m 776 -43 l 661 -354 l 561 -354 l 561 -43 "},"Ț":{"ha":1242,"x_min":0,"x_max":0,"o":"m 1242 929 l 1056 688 l 724 688 l 724 0 l 436 0 l 436 688 l 0 688 l 186 929 m 689 -43 l 574 -354 l 474 -354 l 474 -43 "},"ț":{"ha":1242,"x_min":0,"x_max":0,"o":"m 1242 929 l 1056 688 l 724 688 l 724 0 l 436 0 l 436 688 l 0 688 l 186 929 m 689 -43 l 574 -354 l 474 -354 l 474 -43 "},"ˆ":{"ha":575,"x_min":0,"x_max":0,"o":"m 508 993 l 371 993 l 293 1133 l 281 1133 l 204 993 l 65 993 l 197 1204 l 379 1204 "},"ˇ":{"ha":575,"x_min":0,"x_max":0,"o":"m 65 1204 l 204 1204 l 282 1064 l 294 1064 l 371 1204 l 508 1204 l 378 993 l 196 993 "},"˘":{"ha":575,"x_min":0,"x_max":0,"o":"m 508 1204 b 331 993 508 1132 463 993 l 244 993 b 65 1204 113 993 65 1132 l 204 1204 b 282 1078 204 1163 221 1078 l 301 1078 b 371 1204 356 1078 371 1163 "},"˙":{"ha":307,"x_min":0,"x_max":0,"o":"m 36 1118 b 154 1222 36 1185 89 1222 b 274 1118 221 1222 274 1185 b 154 1017 274 1054 221 1017 b 36 1118 89 1017 36 1054 "},"˚":{"ha":532,"x_min":0,"x_max":0,"o":"m 200 1213 b 174 1188 183 1213 174 1203 l 174 1117 b 200 1092 174 1100 183 1092 l 331 1092 b 358 1117 350 1092 358 1100 l 358 1188 b 331 1213 358 1204 350 1213 m 467 1108 b 322 993 467 1031 418 993 l 208 993 b 65 1108 113 993 65 1031 l 65 1196 b 208 1313 65 1274 113 1313 l 322 1313 b 467 1196 418 1313 467 1274 "},"˛":{"ha":429,"x_min":0,"x_max":0,"o":"m 364 -347 l 219 -347 b 54 -226 117 -347 54 -292 b 124 -104 54 -186 75 -143 l 251 0 l 364 0 l 213 -122 b 199 -147 203 -131 199 -139 b 229 -169 199 -160 208 -169 l 364 -169 "},"˜":{"ha":546,"x_min":0,"x_max":0,"o":"m 374 1017 b 172 1074 303 1017 244 1074 b 65 1024 129 1074 89 1051 l 65 1139 b 172 1181 92 1168 131 1181 b 374 1122 244 1181 301 1122 b 479 1172 417 1122 456 1144 l 479 1058 b 374 1017 453 1028 415 1017 "},"˝":{"ha":628,"x_min":0,"x_max":0,"o":"m 464 1007 l 358 1007 l 428 1204 l 601 1204 m 210 1007 l 106 1007 l 174 1204 l 349 1204 "},"̦":{"ha":360,"x_min":0,"x_max":0,"o":"m 306 -43 l 190 -354 l 90 -354 l 90 -43 "},"Ẁ":{"ha":1750,"x_min":0,"x_max":0,"o":"m 1019 346 b 869 625 939 489 901 558 b 722 347 840 558 803 490 l 574 83 b 415 -15 540 24 490 -15 b 254 113 343 -15 279 26 l 18 929 l 306 929 l 393 606 b 456 350 422 501 442 425 b 586 607 486 415 522 486 l 711 840 b 875 944 760 932 807 944 b 1042 840 944 944 993 932 l 1165 606 b 1296 350 1235 478 1267 413 b 1360 606 1311 424 1332 503 l 1447 929 l 1728 929 l 1488 113 b 1326 -15 1463 26 1399 -15 b 1168 83 1253 -15 1203 22 m 1042 993 l 628 1047 l 628 1204 l 1042 1108 "},"ẁ":{"ha":1750,"x_min":0,"x_max":0,"o":"m 1019 346 b 869 625 939 489 901 558 b 722 347 840 558 803 490 l 574 83 b 415 -15 540 24 490 -15 b 254 113 343 -15 279 26 l 18 929 l 306 929 l 393 606 b 456 350 422 501 442 425 b 586 607 486 415 522 486 l 711 840 b 875 944 760 932 807 944 b 1042 840 944 944 993 932 l 1165 606 b 1296 350 1235 478 1267 413 b 1360 606 1311 424 1332 503 l 1447 929 l 1728 929 l 1488 113 b 1326 -15 1463 26 1399 -15 b 1168 83 1253 -15 1203 22 m 1042 993 l 628 1047 l 628 1204 l 1042 1108 "},"Ẃ":{"ha":1750,"x_min":0,"x_max":0,"o":"m 1019 346 b 869 625 939 489 901 558 b 722 347 840 558 803 490 l 574 83 b 415 -15 540 24 490 -15 b 254 113 343 -15 279 26 l 18 929 l 306 929 l 393 606 b 456 350 422 501 442 425 b 586 607 486 415 522 486 l 711 840 b 875 944 760 932 807 944 b 1042 840 944 944 993 932 l 1165 606 b 1296 350 1235 478 1267 413 b 1360 606 1311 424 1332 503 l 1447 929 l 1728 929 l 1488 113 b 1326 -15 1463 26 1399 -15 b 1168 83 1253 -15 1203 22 m 1121 1047 l 707 993 l 707 1108 l 1121 1204 "},"ẃ":{"ha":1750,"x_min":0,"x_max":0,"o":"m 1019 346 b 869 625 939 489 901 558 b 722 347 840 558 803 490 l 574 83 b 415 -15 540 24 490 -15 b 254 113 343 -15 279 26 l 18 929 l 306 929 l 393 606 b 456 350 422 501 442 425 b 586 607 486 415 522 486 l 711 840 b 875 944 760 932 807 944 b 1042 840 944 944 993 932 l 1165 606 b 1296 350 1235 478 1267 413 b 1360 606 1311 424 1332 503 l 1447 929 l 1728 929 l 1488 113 b 1326 -15 1463 26 1399 -15 b 1168 83 1253 -15 1203 22 m 1121 1047 l 707 993 l 707 1108 l 1121 1204 "},"Ẅ":{"ha":1750,"x_min":0,"x_max":0,"o":"m 1019 346 b 869 625 939 489 901 558 b 722 347 840 558 803 490 l 574 83 b 415 -15 540 24 490 -15 b 254 113 343 -15 279 26 l 18 929 l 306 929 l 393 606 b 456 350 422 501 442 425 b 586 607 486 415 522 486 l 711 840 b 875 944 760 932 807 944 b 1042 840 944 944 993 932 l 1165 606 b 1296 350 1235 478 1267 413 b 1360 606 1311 424 1332 503 l 1447 929 l 1728 929 l 1488 113 b 1326 -15 1463 26 1399 -15 b 1168 83 1253 -15 1203 22 m 613 1118 b 731 1222 613 1185 665 1222 b 850 1118 797 1222 850 1185 b 731 1017 850 1054 797 1017 b 613 1118 665 1017 613 1054 m 901 1118 b 1019 1222 901 1185 956 1222 b 1139 1118 1086 1222 1139 1185 b 1019 1017 1139 1054 1086 1017 b 901 1118 956 1017 901 1054 "},"ẅ":{"ha":1750,"x_min":0,"x_max":0,"o":"m 1019 346 b 869 625 939 489 901 558 b 722 347 840 558 803 490 l 574 83 b 415 -15 540 24 490 -15 b 254 113 343 -15 279 26 l 18 929 l 306 929 l 393 606 b 456 350 422 501 442 425 b 586 607 486 415 522 486 l 711 840 b 875 944 760 932 807 944 b 1042 840 944 944 993 932 l 1165 606 b 1296 350 1235 478 1267 413 b 1360 606 1311 424 1332 503 l 1447 929 l 1728 929 l 1488 113 b 1326 -15 1463 26 1399 -15 b 1168 83 1253 -15 1203 22 m 613 1118 b 731 1222 613 1185 665 1222 b 850 1118 797 1222 850 1185 b 731 1017 850 1054 797 1017 b 613 1118 665 1017 613 1054 m 901 1118 b 1019 1222 901 1185 956 1222 b 1139 1118 1086 1222 1139 1185 b 1019 1017 1139 1054 1086 1017 b 901 1118 956 1017 901 1054 "},"Ỳ":{"ha":1428,"x_min":0,"x_max":0,"o":"m 1418 929 l 867 307 l 867 0 l 578 0 l 578 308 l 11 929 l 381 929 l 603 671 b 729 525 632 638 710 553 b 846 672 747 551 779 592 l 1057 929 m 881 993 l 467 1047 l 467 1204 l 881 1108 "},"ỳ":{"ha":1428,"x_min":0,"x_max":0,"o":"m 1418 929 l 867 307 l 867 0 l 578 0 l 578 308 l 11 929 l 381 929 l 603 671 b 729 525 632 638 710 553 b 846 672 747 551 779 592 l 1057 929 m 881 993 l 467 1047 l 467 1204 l 881 1108 "},"–":{"ha":868,"x_min":0,"x_max":0,"o":"m 849 560 l 708 381 l 21 381 l 161 560 "},"—":{"ha":1393,"x_min":0,"x_max":0,"o":"m 1375 560 l 1235 381 l 21 381 l 161 560 "},"‘":{"ha":304,"x_min":0,"x_max":0,"o":"m 24 557 l 160 929 l 281 929 l 281 557 "},"’":{"ha":304,"x_min":0,"x_max":0,"o":"m 281 929 l 143 557 l 24 557 l 24 929 "},"‚":{"ha":304,"x_min":0,"x_max":0,"o":"m 281 239 l 143 -133 l 24 -133 l 24 239 "},"‛":{"ha":304,"x_min":0,"x_max":0,"o":"m 281 929 l 281 557 l 160 557 l 24 929 "},"“":{"ha":619,"x_min":0,"x_max":0,"o":"m 339 557 l 476 929 l 596 929 l 596 557 m 24 557 l 160 929 l 281 929 l 281 557 "},"”":{"ha":619,"x_min":0,"x_max":0,"o":"m 596 929 l 458 557 l 339 557 l 339 929 m 281 929 l 143 557 l 24 557 l 24 929 "},"„":{"ha":619,"x_min":0,"x_max":0,"o":"m 596 239 l 458 -133 l 339 -133 l 339 239 m 281 239 l 143 -133 l 24 -133 l 24 239 "},"‟":{"ha":619,"x_min":0,"x_max":0,"o":"m 281 929 l 281 557 l 160 557 l 24 929 m 596 929 l 596 557 l 476 557 l 339 929 "},"†":{"ha":596,"x_min":0,"x_max":0,"o":"m 354 678 l 526 625 l 356 571 l 311 0 l 275 0 l 233 571 l 60 625 l 233 678 l 276 929 l 310 929 "},"‡":{"ha":606,"x_min":0,"x_max":0,"o":"m 354 717 l 526 674 l 526 646 l 356 601 l 356 326 l 526 283 l 526 256 l 354 213 l 313 -1 l 281 -1 l 236 213 l 67 256 l 67 283 l 235 326 l 235 603 l 65 653 l 68 682 l 236 718 l 281 929 l 313 929 "},"•":{"ha":636,"x_min":0,"x_max":0,"o":"m 82 465 b 318 701 82 596 188 701 b 554 465 449 701 554 596 b 318 229 554 335 449 229 b 82 465 188 229 82 335 "},"…":{"ha":1288,"x_min":0,"x_max":0,"o":"m 58 118 b 214 254 58 204 128 254 b 371 118 301 254 371 204 b 214 -15 371 33 301 -15 b 58 118 128 -15 58 33 m 488 118 b 643 254 488 204 557 254 b 800 118 731 254 800 204 b 643 -15 800 33 731 -15 b 488 118 557 -15 488 33 m 917 118 b 1072 254 917 204 986 254 b 1229 118 1160 254 1229 204 b 1072 -15 1229 33 1160 -15 b 917 118 986 -15 917 33 "},"‰":{"ha":1888,"x_min":0,"x_max":0,"o":"m 356 961 b 651 722 553 961 651 888 b 356 482 651 556 553 482 b 58 722 157 482 58 556 b 356 961 58 888 157 961 m 356 603 b 510 722 468 603 510 622 b 356 840 510 822 468 840 b 200 722 242 840 200 822 b 356 603 200 622 242 603 m 1061 981 l 321 -53 l 194 -53 l 944 981 m 914 458 b 1210 219 1111 458 1210 385 b 914 -21 1210 53 1111 -21 b 617 219 715 -21 617 53 b 914 458 617 385 715 458 m 914 100 b 1068 219 1026 100 1068 119 b 914 338 1068 319 1026 338 b 758 219 800 338 758 319 b 914 100 758 119 800 100 m 1535 458 b 1831 219 1732 458 1831 385 b 1535 -21 1831 53 1732 -21 b 1238 219 1336 -21 1238 53 b 1535 458 1238 385 1336 458 m 1535 100 b 1689 219 1647 100 1689 119 b 1535 338 1689 319 1647 338 b 1379 219 1421 338 1379 319 b 1535 100 1379 119 1421 100 "},"′":{"ha":308,"x_min":0,"x_max":0,"o":"m 315 929 l 139 557 l 10 557 l 93 929 "},"″":{"ha":617,"x_min":0,"x_max":0,"o":"m 315 929 l 139 557 l 10 557 l 93 929 m 624 929 l 447 557 l 318 557 l 401 929 "},"‹":{"ha":340,"x_min":0,"x_max":0,"o":"m 125 451 l 282 349 l 282 219 l 40 383 l 40 510 l 282 683 l 282 551 "},"›":{"ha":340,"x_min":0,"x_max":0,"o":"m 64 551 l 64 683 l 307 510 l 307 383 l 64 219 l 64 349 l 222 451 "},"⁄":{"ha":393,"x_min":0,"x_max":0,"o":"m 638 981 l -103 -53 l -229 -53 l 521 981 "},"⁰":{"ha":690,"x_min":0,"x_max":0,"o":"m 346 961 b 642 722 543 961 642 888 b 346 482 642 556 543 482 b 49 722 147 482 49 556 b 346 961 49 888 147 961 m 346 603 b 500 722 458 603 500 622 b 346 840 500 822 458 840 b 190 722 232 840 190 822 b 346 603 190 622 232 603 "},"⁴":{"ha":706,"x_min":0,"x_max":0,"o":"m 110 544 b 39 608 65 544 39 575 b 69 664 39 626 49 647 l 404 936 b 471 961 428 956 453 961 b 550 875 511 961 550 936 l 550 660 l 682 660 l 599 544 l 550 544 l 550 490 l 411 490 l 411 544 m 411 728 b 414 788 411 757 413 772 b 364 744 403 776 386 763 l 313 703 b 250 657 288 682 265 668 b 329 660 269 658 294 660 l 411 660 "},"⁵":{"ha":664,"x_min":0,"x_max":0,"o":"m 599 954 l 506 833 l 215 833 l 215 768 l 440 768 b 615 640 553 768 615 726 b 415 490 615 546 557 490 l 49 490 l 140 610 l 428 610 b 476 642 460 610 476 618 b 428 676 476 665 460 676 l 72 676 l 72 954 "},"⁶":{"ha":714,"x_min":0,"x_max":0,"o":"m 322 833 b 197 768 264 833 218 808 l 490 768 b 665 639 597 768 665 724 b 375 482 665 513 525 482 b 49 726 160 482 49 557 b 329 954 49 861 167 954 l 628 954 l 535 833 l 322 833 m 197 676 b 382 603 214 614 275 603 b 529 644 503 603 529 617 b 479 676 529 665 514 676 "},"⁷":{"ha":625,"x_min":0,"x_max":0,"o":"m 279 490 l 97 490 l 326 746 b 411 836 374 800 393 821 b 281 833 385 833 353 833 l 28 833 l 119 954 l 521 954 b 600 892 574 954 600 926 b 576 838 600 875 594 858 "},"⁸":{"ha":700,"x_min":0,"x_max":0,"o":"m 236 490 b 49 625 90 490 49 547 b 121 729 49 681 81 717 b 58 825 89 739 58 771 b 240 954 58 910 129 954 l 460 954 b 643 825 572 954 643 910 b 579 729 643 771 611 739 b 651 625 621 717 651 681 b 464 490 651 547 610 490 m 236 672 b 192 640 206 672 192 663 b 236 610 192 619 206 610 l 464 610 b 508 640 496 610 508 619 b 464 672 508 663 496 672 m 233 833 b 194 804 214 833 194 826 b 233 772 194 781 213 772 l 467 772 b 506 804 488 772 506 781 b 467 833 506 826 486 833 "},"⁹":{"ha":714,"x_min":0,"x_max":0,"o":"m 392 610 b 517 686 453 610 496 643 b 222 675 482 681 451 675 b 49 804 117 675 49 719 b 339 961 49 932 188 961 b 665 732 553 961 665 886 b 385 490 665 582 546 490 l 92 490 l 183 610 m 233 767 b 515 774 447 767 475 769 b 331 840 501 833 439 840 b 183 799 211 840 183 826 b 233 767 183 778 200 767 "},"₀":{"ha":690,"x_min":0,"x_max":0,"o":"m 346 458 b 642 219 543 458 642 385 b 346 -21 642 53 543 -21 b 49 219 147 -21 49 53 b 346 458 49 385 147 458 m 346 100 b 500 219 458 100 500 119 b 346 338 500 319 458 338 b 190 219 232 338 190 319 b 346 100 190 119 232 100 "},"₁":{"ha":349,"x_min":0,"x_max":0,"o":"m 114 451 l 285 451 l 285 -12 l 140 -12 l 140 331 l 28 331 "},"₂":{"ha":689,"x_min":0,"x_max":0,"o":"m 164 451 l 436 451 b 636 307 578 451 636 394 b 461 174 636 228 581 174 l 240 174 b 192 139 208 174 192 163 l 192 107 l 640 107 l 547 -12 l 53 -12 l 53 138 b 228 265 53 224 114 265 l 449 265 b 497 299 481 265 497 275 b 449 331 497 322 481 331 l 72 331 "},"₃":{"ha":672,"x_min":0,"x_max":0,"o":"m 117 107 l 435 107 b 479 138 467 107 479 117 b 435 169 479 160 467 169 l 157 169 l 232 269 l 438 269 b 478 301 458 269 478 278 b 438 331 478 324 457 331 l 49 331 l 140 451 l 431 451 b 614 322 543 451 614 407 b 551 226 614 268 582 236 b 624 122 592 214 624 178 b 435 -12 624 44 581 -12 l 26 -12 "},"₄":{"ha":706,"x_min":0,"x_max":0,"o":"m 110 42 b 39 106 65 42 39 72 b 69 161 39 124 49 144 l 404 433 b 471 458 428 453 453 458 b 550 372 511 458 550 433 l 550 157 l 682 157 l 599 42 l 550 42 l 550 -12 l 411 -12 l 411 42 m 411 225 b 414 285 411 254 413 269 b 364 242 403 274 386 260 l 313 200 b 250 154 288 179 265 165 b 329 157 269 156 294 157 l 411 157 "},"₅":{"ha":664,"x_min":0,"x_max":0,"o":"m 599 451 l 506 331 l 215 331 l 215 265 l 440 265 b 615 138 553 265 615 224 b 415 -12 615 43 557 -12 l 49 -12 l 140 107 l 428 107 b 476 139 460 107 476 115 b 428 174 476 163 460 174 l 72 174 l 72 451 "},"₆":{"ha":714,"x_min":0,"x_max":0,"o":"m 322 331 b 197 265 264 331 218 306 l 490 265 b 665 136 597 265 665 221 b 375 -21 665 10 525 -21 b 49 224 160 -21 49 54 b 329 451 49 358 167 451 l 628 451 l 535 331 l 322 331 m 197 174 b 382 100 214 111 275 100 b 529 142 503 100 529 114 b 479 174 529 163 514 174 "},"₇":{"ha":625,"x_min":0,"x_max":0,"o":"m 279 -12 l 97 -12 l 326 243 b 411 333 374 297 393 318 b 281 331 385 331 353 331 l 28 331 l 119 451 l 521 451 b 600 389 574 451 600 424 b 576 335 600 372 594 356 "},"₈":{"ha":700,"x_min":0,"x_max":0,"o":"m 236 -12 b 49 122 90 -12 49 44 b 121 226 49 178 81 214 b 58 322 89 236 58 268 b 240 451 58 407 129 451 l 460 451 b 643 322 572 451 643 407 b 579 226 643 268 611 236 b 651 122 621 214 651 178 b 464 -12 651 44 610 -12 m 236 169 b 192 138 206 169 192 160 b 236 107 192 117 206 107 l 464 107 b 508 138 496 107 508 117 b 464 169 508 160 496 169 m 233 331 b 194 301 214 331 194 324 b 233 269 194 278 213 269 l 467 269 b 506 301 488 269 506 278 b 467 331 506 324 486 331 "},"₉":{"ha":714,"x_min":0,"x_max":0,"o":"m 392 107 b 517 183 453 107 496 140 b 222 172 482 178 451 172 b 49 301 117 172 49 217 b 339 458 49 429 188 458 b 665 229 553 458 665 383 b 385 -12 665 79 546 -12 l 92 -12 l 183 107 m 233 264 b 515 271 447 264 475 267 b 331 338 501 331 439 338 b 183 296 211 338 183 324 b 233 264 183 275 200 264 "},"€":{"ha":1235,"x_min":0,"x_max":0,"o":"m 72 597 l 139 597 b 682 929 200 799 411 929 l 1203 929 l 1015 688 l 682 688 b 460 597 588 688 508 653 l 943 597 l 872 504 l 414 504 b 410 461 411 490 410 476 b 411 435 410 453 410 443 l 819 435 l 747 343 l 447 343 b 682 239 493 278 578 239 l 1150 239 l 965 0 l 682 0 b 142 343 414 0 206 140 l 10 343 l 72 435 l 124 435 b 122 474 122 447 122 460 b 124 504 122 483 122 494 l 10 504 "},"℗":{"ha":1090,"x_min":0,"x_max":0,"o":"m 794 526 b 601 369 794 432 724 369 l 411 369 l 411 242 l 322 242 l 322 444 l 608 444 b 699 526 667 444 699 478 b 608 608 699 576 667 608 l 349 608 l 411 686 l 601 686 b 794 526 724 686 794 621 m 61 465 b 542 946 61 732 276 946 b 1022 465 807 946 1022 732 b 542 -15 1022 200 807 -15 b 61 465 276 -15 61 200 m 118 464 b 544 39 118 228 307 39 b 969 464 779 39 969 228 b 544 893 969 699 779 893 b 118 464 307 893 118 699 "},"™":{"ha":803,"x_min":0,"x_max":0,"o":"m 339 846 l 236 846 l 236 540 l 151 540 l 151 846 l 47 846 l 47 929 l 339 929 m 739 540 l 653 540 l 653 686 l 593 540 l 528 540 l 468 685 l 468 540 l 382 540 l 382 929 l 460 929 l 561 683 l 661 929 l 739 929 "},"⅓":{"ha":1282,"x_min":0,"x_max":0,"o":"m 144 954 l 315 954 l 315 490 l 171 490 l 171 833 l 58 833 m 950 981 l 210 -53 l 83 -53 l 833 981 m 717 107 l 1035 107 b 1079 138 1067 107 1079 117 b 1035 169 1079 160 1067 169 l 757 169 l 832 269 l 1038 269 b 1078 301 1058 269 1078 278 b 1038 331 1078 324 1057 331 l 649 331 l 740 451 l 1031 451 b 1214 322 1143 451 1214 407 b 1151 226 1214 268 1182 236 b 1224 122 1192 214 1224 178 b 1035 -12 1224 44 1181 -12 l 626 -12 "},"⅔":{"ha":1439,"x_min":0,"x_max":0,"o":"m 169 954 l 442 954 b 642 810 583 954 642 897 b 467 676 642 731 586 676 l 246 676 b 197 642 214 676 197 665 l 197 610 l 646 610 l 553 490 l 58 490 l 58 640 b 233 768 58 726 119 768 l 454 768 b 503 801 486 768 503 778 b 454 833 503 825 486 833 l 78 833 m 1147 981 l 407 -53 l 281 -53 l 1031 981 m 875 107 l 1193 107 b 1238 138 1225 107 1238 117 b 1193 169 1238 160 1225 169 l 915 169 l 990 269 l 1196 269 b 1236 301 1217 269 1236 278 b 1196 331 1236 324 1215 331 l 807 331 l 899 451 l 1189 451 b 1372 322 1301 451 1372 407 b 1310 226 1372 268 1340 236 b 1382 122 1350 214 1382 178 b 1193 -12 1382 44 1339 -12 l 785 -12 "},"⅛":{"ha":1336,"x_min":0,"x_max":0,"o":"m 144 954 l 315 954 l 315 490 l 171 490 l 171 833 l 58 833 m 976 981 l 236 -53 l 110 -53 l 860 981 m 863 -12 b 675 122 717 -12 675 44 b 747 226 675 178 707 214 b 685 322 715 236 685 268 b 867 451 685 407 756 451 l 1086 451 b 1269 322 1199 451 1269 407 b 1206 226 1269 268 1238 236 b 1278 122 1247 214 1278 178 b 1090 -12 1278 44 1236 -12 m 863 169 b 818 138 832 169 818 160 b 863 107 818 117 832 107 l 1090 107 b 1135 138 1122 107 1135 117 b 1090 169 1135 160 1122 169 m 860 331 b 821 301 840 331 821 324 b 860 269 821 278 839 269 l 1093 269 b 1132 301 1114 269 1132 278 b 1093 331 1132 324 1113 331 "},"⅜":{"ha":1517,"x_min":0,"x_max":0,"o":"m 149 610 l 467 610 b 511 640 499 610 511 619 b 467 672 511 663 499 672 l 189 672 l 264 772 l 469 772 b 510 804 490 772 510 781 b 469 833 510 826 489 833 l 81 833 l 172 954 l 463 954 b 646 825 575 954 646 910 b 583 729 646 771 614 739 b 656 625 624 717 656 681 b 467 490 656 547 613 490 l 58 490 m 1183 981 l 443 -53 l 317 -53 l 1067 981 m 1043 -12 b 856 122 897 -12 856 44 b 928 226 856 178 888 214 b 865 322 896 236 865 268 b 1047 451 865 407 936 451 l 1267 451 b 1450 322 1379 451 1450 407 b 1386 226 1450 268 1418 236 b 1458 122 1428 214 1458 178 b 1271 -12 1458 44 1417 -12 m 1043 169 b 999 138 1013 169 999 160 b 1043 107 999 117 1013 107 l 1271 107 b 1315 138 1303 107 1315 117 b 1271 169 1315 160 1303 169 m 1040 331 b 1001 301 1021 331 1001 324 b 1040 269 1001 278 1019 269 l 1274 269 b 1313 301 1294 269 1313 278 b 1274 331 1313 324 1293 331 "},"⅝":{"ha":1474,"x_min":0,"x_max":0,"o":"m 608 954 l 515 833 l 225 833 l 225 768 l 450 768 b 625 640 563 768 625 726 b 425 490 625 546 567 490 l 58 490 l 150 610 l 438 610 b 486 642 469 610 486 618 b 438 676 486 665 469 676 l 82 676 l 82 954 m 1140 981 l 400 -53 l 274 -53 l 1024 981 m 1000 -12 b 813 122 854 -12 813 44 b 885 226 813 178 844 214 b 822 322 853 236 822 268 b 1004 451 822 407 893 451 l 1224 451 b 1407 322 1336 451 1407 407 b 1343 226 1407 268 1375 236 b 1415 122 1385 214 1415 178 b 1228 -12 1415 44 1374 -12 m 1000 169 b 956 138 969 169 956 160 b 1000 107 956 117 969 107 l 1228 107 b 1272 138 1260 107 1272 117 b 1228 169 1272 160 1260 169 m 997 331 b 958 301 978 331 958 324 b 997 269 958 278 976 269 l 1231 269 b 1269 301 1251 269 1269 278 b 1231 331 1269 324 1250 331 "},"⅞":{"ha":1364,"x_min":0,"x_max":0,"o":"m 310 490 l 128 490 l 357 746 b 442 836 404 800 424 821 b 311 833 415 833 383 833 l 58 833 l 150 954 l 551 954 b 631 892 604 954 631 926 b 607 838 631 875 625 858 m 1031 981 l 290 -53 l 164 -53 l 914 981 m 890 -12 b 703 122 744 -12 703 44 b 775 226 703 178 735 214 b 713 322 743 236 713 268 b 894 451 713 407 783 451 l 1114 451 b 1297 322 1226 451 1297 407 b 1233 226 1297 268 1265 236 b 1306 122 1275 214 1306 178 b 1118 -12 1306 44 1264 -12 m 890 169 b 846 138 860 169 846 160 b 890 107 846 117 860 107 l 1118 107 b 1163 138 1150 107 1163 117 b 1118 169 1163 160 1150 169 m 888 331 b 849 301 868 331 849 324 b 888 269 849 278 867 269 l 1121 269 b 1160 301 1142 269 1160 278 b 1121 331 1160 324 1140 331 "},"−":{"ha":874,"x_min":0,"x_max":0,"o":"m 817 394 l 58 394 l 58 550 l 817 550 "},"≈":{"ha":788,"x_min":0,"x_max":0,"o":"m 531 478 b 228 581 428 478 329 581 b 56 467 174 581 117 549 l 56 694 b 246 786 126 768 189 786 b 551 685 347 786 443 685 b 724 796 604 685 661 714 l 724 568 b 531 478 653 497 590 478 m 535 149 b 232 251 432 149 333 251 b 60 138 178 251 121 219 l 60 365 b 250 457 131 439 193 457 b 556 356 351 457 447 356 b 728 467 608 356 665 385 l 728 239 b 535 149 657 168 594 149 "},"≠":{"ha":874,"x_min":0,"x_max":0,"o":"m 817 578 l 582 578 l 429 365 l 817 365 l 817 210 l 318 210 l 131 -53 l 4 -53 l 194 210 l 58 210 l 58 365 l 307 365 l 461 578 l 58 578 l 58 733 l 574 733 l 753 981 l 869 981 l 693 733 l 817 733 "},"≤":{"ha":849,"x_min":0,"x_max":0,"o":"m 792 75 l 108 394 b 58 468 74 410 58 439 b 108 543 58 499 74 526 l 792 863 l 792 693 l 307 468 l 792 244 m 817 -158 l 58 -158 l 58 -3 l 817 -3 "},"≥":{"ha":849,"x_min":0,"x_max":0,"o":"m 58 244 l 543 468 l 58 693 l 58 863 l 742 543 b 792 468 775 526 792 499 b 742 394 792 439 775 410 l 58 75 m 817 -158 l 58 -158 l 58 -3 l 817 -3 "}}}
